<?xml version="1.0" encoding="utf-8"?>
<!-- Generator: Adobe Illustrator 27.9.1, SVG Export Plug-In . SVG Version: 6.00 Build 0)  -->
<svg version="1.1" id="Layer_1" xmlns="http://www.w3.org/2000/svg" xmlns:xlink="http://www.w3.org/1999/xlink" x="0px" y="0px"
	 viewBox="0 0 2560 512" style="enable-background:new 0 0 2560 512;" xml:space="preserve">
<style type="text/css">
	.st0{display:none;}
	.st1{display:inline;fill:#FFFFFF;}
	.st2{fill:#FFFFFF;}
	.st3{fill:#1F1F1F;}
</style>
<rect width="2560" height="512"/>
<g>
	<g transform="translate(820 45)" class="st0">
		<path class="st1" d="M208,383.3c-0.5,2.7-3.2,4.8-5.8,4.8H175c-2.7,0-4.3-2.2-3.7-4.8l6.9-32.5l-19.3,29h-3.8l-7-29l-7,32.5
			c-0.5,2.7-3.2,4.8-5.7,4.8h-27.2c-2.7,0-4.3-2.2-3.8-4.8l14.2-66.7c0.5-2.5,3.1-4.7,5.7-4.7h27.3c2,0,3.3,1.4,3.8,3.2l8.1,33.6
			l22.5-33.6c1.1-1.8,3.1-3.2,5.1-3.2h27.3c2.7,0,4.3,2.2,3.8,4.7L208,383.3z"/>
		<path class="st1" d="M372.3,323c-0.5,2.7-3,4.8-5.6,4.8h-35.7l-3.3,15.5h23.5c2.5,0,4.2,2.2,3.6,4.8l-0.9,4.1
			c-0.5,2.5-3,4.7-5.6,4.7h-23.5l-3.3,15.4h35.7c2.5,0,4.2,2.2,3.7,4.8l-1.4,6.4c-0.5,2.5-3,4.7-5.6,4.7h-69.7
			c-2.5,0-4.1-2.2-3.6-4.7l14.2-66.8c0.5-2.5,3-4.7,5.6-4.7h69.6c2.5,0,4.2,2.2,3.7,4.7L372.3,323z"/>
		<path class="st1" d="M523.3,375.4c-1.4,7-10.4,12.7-19.9,12.7H436c-2.7,0-4.3-2.2-3.8-4.8l14.2-66.7c0.5-2.5,3-4.7,5.7-4.7h67.6
			c9.5,0,16,5.7,14.5,12.7L523.3,375.4z M487.8,323h-6l-11.4,54h6c5.5,0,10.7-3.9,11.8-8.9l7.6-36.1C496.8,327,493.3,323,487.8,323z
			"/>
		<path class="st1" d="M631.2,383.3c-0.5,2.7-3.2,4.8-5.7,4.8h-27.3c-2.7,0-4.3-2.2-3.8-4.8l14.2-66.7c0.5-2.5,3-4.7,5.7-4.7h27.3
			c2.7,0,4.3,2.2,3.8,4.7L631.2,383.3z"/>
		<path class="st1" d="M815,377.9c-5.6,5.8-13.5,10.2-21.3,10.2h-17.2c-7.6,0-11.7-3.9-11.7-10.2v-5.1H746l-4.6,10.5
			c-1.1,2.5-4.5,4.7-7.1,4.7h-30.6c-2.2,0-3-1.8-2.7-3.9c0.1-0.6,0.4-1.3,0.8-1.9l35.6-65.7c1.4-2.4,4.5-4.7,7.1-4.7h47.8
			c2.7,0,4.7,2.3,5.1,4.7l6.3,55c0.4,3.2,4.6,5,7.4,5c1.8,0,3.6-1,4.7-2.5L815,377.9z M764.5,329.3l-13.8,32.3h14.1L764.5,329.3z"/>
	</g>
	<g>
		<path class="st2" d="M1087.9,385.9c-0.6,2.7-3.2,4.8-5.9,4.8h-27.7c-2.6,0-4.4-2.1-3.7-4.8l1.8-8.6c1-5-1.7-9.2-6.2-9.2
			c-4.4,0-8.9,4.1-9.9,9.2l-7.7,36.6c-1.2,5,1.5,9,6.1,9c4.5,0,8.9-4,10.1-9l1.8-8.6c0.5-2.7,3.2-4.9,5.8-4.9h27.7
			c2.7,0,4.4,2.2,3.9,4.9l-3.5,16.1c-1.4,7.1-10.6,12.9-20.3,12.9h-55.9c-9.7,0-16.3-5.8-14.8-12.9l11-51.6
			c1.5-7.1,10.6-12.9,20.3-12.9h56c9.7,0,16.3,5.8,14.7,12.9L1087.9,385.9z"/>
		<path class="st2" d="M1242.7,421.3c-1.4,7.1-10.6,12.9-20.3,12.9h-55.9c-9.7,0-16.3-5.8-14.8-12.9l11-51.6
			c1.5-7.1,10.6-12.9,20.3-12.9h56c9.7,0,16.3,5.8,14.7,12.9L1242.7,421.3z M1208.6,368.1c-4.4,0-8.9,4.1-9.9,9.2l-7.7,36.6
			c-1.2,5,1.5,9,6.1,9c4.5,0,8.9-4,10.1-9l7.7-36.6C1215.8,372.2,1213.1,368.1,1208.6,368.1z"/>
		<path class="st2" d="M1419,423.9c-5.8,5.9-13.7,10.3-21.7,10.3h-17.4c-7.7,0-9-4.1-8.9-10.6c0-9.5-2.7-23.3-9.2-23.3l2.1-9.7h5.3
			c2.6,0,6.7-0.3,7.5-3.7l3.1-15.1c0.6-2.6-3.1-3.7-5.2-3.7H1364l-13,61.4c-0.5,2.5-3.1,4.8-5.7,4.8h-29.2c-2.6,0-4.1-2.3-3.6-4.8
			l14.4-67.9c0.5-2.5,3.1-4.8,5.7-4.8h70.8c9.4,0,15.9,5.5,14.1,14.1l-3.4,15.6c-1.8,8.5-10.6,14.2-20,14.1h-1.7
			c5,0.9,7.7,2.5,10.2,5c2.1,2.1,3.7,5.5,5,9c1.4,3.6,2.2,7.9,7.1,7.9c1.9,0,3.7-1,4.9-2.6L1419,423.9z"/>
		<path class="st2" d="M1572.6,368.1c-0.5,2.7-3.1,4.9-5.7,4.9h-36.2l-3.4,15.7h23.9c2.6,0,4.3,2.2,3.6,4.9l-0.9,4.1
			c-0.5,2.6-3.1,4.8-5.7,4.8h-23.9l-3.4,15.6h36.2c2.6,0,4.3,2.2,3.7,4.9l-1.4,6.5c-0.5,2.6-3.1,4.8-5.7,4.8h-70.8
			c-2.6,0-4.1-2.2-3.6-4.8l14.4-67.9c0.5-2.6,3.1-4.8,5.7-4.8h70.7c2.6,0,4.3,2.2,3.7,4.8L1572.6,368.1z"/>
	</g>
	<g transform="translate(820 45)">
		<path class="st2" d="M895,387.1c2.2,0,4.3,0.5,6.3,1.7c2.1,1.1,3.7,2.7,4.8,4.8c1.2,2.1,1.7,4.2,1.7,6.5c0,2.2-0.6,4.4-1.7,6.4
			c-1.1,2-2.7,3.6-4.8,4.8s-4.2,1.7-6.4,1.7c-2.2,0-4.4-0.6-6.4-1.7s-3.6-2.7-4.8-4.8s-1.7-4.2-1.7-6.4c0-2.2,0.6-4.4,1.7-6.5
			s2.8-3.7,4.8-4.8C890.7,387.7,892.8,387.1,895,387.1z M895,389.2c-1.8,0-3.6,0.5-5.3,1.4c-1.7,0.9-3.1,2.3-4,4
			c-1,1.7-1.5,3.5-1.5,5.4c0,1.9,0.5,3.6,1.4,5.3s2.3,3,4,4c1.7,1,3.5,1.4,5.3,1.4s3.6-0.5,5.3-1.4c1.7-1,3-2.3,4-4
			c1-1.7,1.4-3.5,1.4-5.3c0-1.9-0.5-3.7-1.4-5.4c-1-1.7-2.3-3-4-4C898.6,389.7,896.8,389.2,895,389.2z M889.3,407.1v-13.9h4.8
			c1.6,0,2.8,0.1,3.5,0.4c0.7,0.3,1.3,0.7,1.7,1.3c0.4,0.6,0.7,1.3,0.7,2c0,1-0.4,1.9-1.1,2.6s-1.7,1.2-2.9,1.3
			c0.5,0.2,0.9,0.5,1.2,0.7c0.6,0.5,1.2,1.5,2,2.8l1.7,2.7h-2.7l-1.2-2.2c-1-1.7-1.8-2.8-2.3-3.2c-0.4-0.3-1-0.5-1.8-0.5h-1.3v5.9
			L889.3,407.1L889.3,407.1z M891.6,399.3h2.7c1.3,0,2.2-0.2,2.7-0.6c0.5-0.4,0.7-0.9,0.7-1.5c0-0.4-0.1-0.8-0.3-1.1
			c-0.2-0.3-0.5-0.6-1-0.7c-0.4-0.2-1.2-0.2-2.2-0.2h-2.5L891.6,399.3L891.6,399.3z"/>
	</g>
	<rect x="820" y="44.5" class="st2" width="910" height="275.5"/>
	<g transform="translate(820 45)">
		<path d="M203.4,222.7l-0.7,1.9l-2.3,0.9h-12.2l-9.6-0.2h-2.8l-7.9,0.4h-2.3l-1.6-0.9l-1.4-1.7l-5.6-9.8l-1.6-2.6l-5.6-9.3
			l-1.6-2.6l-4.9-10l-1.6-2.6l-5.6-9.3l-1.2-1.7l-1.1-0.6l-2.1-0.2l-5.6-0.4l-2.3,0.2l-1.4,1.3l-0.5,2.8l-0.3,11.9l0.2,3.5l0.7,12.1
			l0.2,3.5l0.2,5.2v3.5l-0.2,3.5l-0.3,2.6l-0.9,1.1l-1.9,0.6h-2.8l-8.4-0.6l-8.1,0.6h-2.8l-8.1-0.6l-2.1-0.4l-1.1-0.9l-0.3-2.2
			l-0.2-3l-0.2-3.2l0.3-5.6l0.2-3.5l0.7-11.7V191l-0.5-11.7l-0.2-3.5l-0.2-11.5v-3.5l0.5-11.7v-3.5L85.9,134v-3.5l0.5-11.7v-3.5
			l0.3-11.5v-3.5l-0.2-11.7v-3.5L86.3,78l0.2-3.2l0.2-1.3l0.5-2.8l1.1-1.7l2.1-0.7l1.4-0.2l2.6-0.2l7.9,0.4l20.8,0.9l11.9-0.9h2.8
			l11.6,0.9h6.6l3,0.2l2.6,0.7l3.7,1.3l2.6,1.1l2.6,1.3l2.8,1.3l2.6,1.5l2.3,1.7l3.3,2.8l1.9,1.9l1.8,2.2l1.8,2.6l2.4,4.3l1.6,2.8
			l2.1,4.1l1.2,3l1.2,3.2l0.9,3.5l0.5,3.5l0.2,3.5l0.4,4.8v3.5l-0.2,3.5l-0.4,3.7l-0.5,3.7l-0.7,3.5l-1.1,3.2l-1.2,3.2l-1.6,3.2
			l-1.6,2.8l-1.6,2.6l-1.6,2.4l-2.8,3.5l-1.9,1.9l-3.5,2.4l-2.1,1.5l-2.3,1.5l-2.3,0.6l-1.4,0.6l0.7,1.7l6.3,11.1l1.6,2.6l6.3,10.6
			l1.8,2.6l6.3,10.8l1.8,2.6l5.4,7.8l1.6,2.4L203.4,222.7z M91.5,92l0.7,0.7l0.3-0.2l0.3-0.4l-0.2-0.2L91.5,92z M92.9,111.9l0.7-0.4
			l0.2-0.9l-0.5-0.2l-0.7,0.2l-0.3-0.2l-0.3,0.2l0.2,0.9L92.9,111.9z M93.1,105.2l0.2,0.7l0.7,0.4l0.7-0.4l0.5-1.5l-0.7-1.5
			L93.1,105.2z M93.5,75.3l0.7,1.3l0.3-1.1l-0.2-1.3L94,74l-0.3,0.2L93.5,75.3z M94.3,89.6l-0.9,1.7l1.8,0.7L95,94.6h0.2l0.7-2.2
			l1.2-1.1l1.6,0.2l1.8,2.8l1.1-0.2l0.3-1.9l-0.3-0.7l0.5-2.6l1.1,1.1v0.7l0.2-0.2l0.9,2.4l1.4,0.7l0.5-0.2V93h0.3l0.5-1.5l0.5-0.4
			l0.9,0.4l1.1-0.4l-0.5-1.5h-1.4l-0.2-0.2h-0.2l0.3-1.5l1.1-0.7l1.1,0.9l-0.2-1.3l-0.9-0.7h-0.2l0.7-1.3h0.2v0.7l0.3,0.2l0.3-0.7
			v-0.2h0.2l1.6,2.2l-0.2,1.3l0.9,0.7V87l2.4-1.7l0.5,1.1l1.1-0.2l-1.4-1.5h-0.7l-0.5,0.9l-0.9-0.2l-0.5,0.9V87h-0.7l-0.3-1.1
			l-0.7-0.4l2.3-1.5l0.5-1.1l-0.5-0.2l-1.4,0.9l-0.2-1.3h-0.7l-0.3,0.7l-0.5-0.7V82l0.9-1.3l0.5,0.4l1.4-0.4l1.1,0.4l0.5,0.9
			l1.2-0.2l-1.4-1.1l0.3-2.2l-1.4-1.3h-0.7l-0.5-0.7h0.3l0.2-0.4l-0.5-0.7l-2.8,1.3l0.3,1.3l-1.4,4.1h-0.2v0.9l-4.4,0.2l-0.5,0.9
			l0.5,0.7h0.9v0.9l-0.3,0.7l-0.9-0.4l-0.9,0.7v1.5l-2.4,0.9l-0.3-0.7h-0.7l-0.3-0.9l-1.2-0.2l-0.2-0.7l0.2-0.9l1.2-0.4l-0.5-0.4
			l0.2-1.1l2.3-0.7v-1.3l-1.2-0.2l-0.5-0.7l-0.2-2.4l0.7-1.5L98,75.5v-0.7l-1.2-0.7l-0.5,0.9l1.2,7.4L94.9,85H94l-0.5,1.1L94.3,89.6
			z M99.2,202.5h-0.7l-0.7,0.4l-1.2-0.2l-0.5-0.6v-0.9l0.7-0.4l-0.2-1.5l-3-0.2v1.5l0.5,0.4l-0.2,1.7l5.1,0.6L99.2,202.5z
			 M94.9,80.7l-0.7-0.2l-0.3,0.9l0.2,0.9l-0.2,0.4l0.2,0.4l0.9-0.2l0.3-1.1L94.9,80.7z M94.9,142l0.2-0.4l-0.2-0.4H94l-0.2,0.2
			l0.2,0.4L94.9,142z M94.7,145.3l0.2-0.9l-0.7,0.2l-0.3,0.6v0.2l0.3,0.2L94.7,145.3z M94.5,166.3h-0.2l-0.3,0.2v0.4l0.2,0.2
			l0.5-0.4v-0.2L94.5,166.3z M115,100.2l-0.7-0.4l-5.4,1.3l-1.4-1.3l-0.7-2.6l-0.7-0.7l-2.4,1.1l-1.4-1.1l-0.5,1.9h-1.9v0.2l1.6,0.7
			l0.9,1.3l-0.2,1.9l-2.1,2.2l-0.2-0.2h-0.3l-1.1-1.1l-0.3,2.8l-3.2,1.5l2.1,0.9l2.6-3l4.4,0.7l-0.2,0.9l-2.6,1.7l-0.2,2.4l1.4,0.9
			l0.2,0.4l-0.3,1.1l0.3,1.1l1.1-0.7v-1.5l0.2-0.2v-0.2l1.1,0.2l0.5,1.3l-0.5,1.3l1.1-0.2l0.3-1.3l1.1,0.7v1.3l-1.2,0.9l-0.3,0.9
			h-1.1l-0.3,0.9h1.4l1.4,2.8l-0.9,0.7l0.2,1.1l1.1-1.5v-0.9l-0.7-1.1l0.2-0.7l-0.5-0.4h-0.7v-0.9l0.9-0.2l0.2-0.9l1.6,3h0.3
			l0.3-0.7l-0.7-0.9v-0.7h0.9V116l-0.5-0.4l0.2-0.4l0.5-0.2l0.9,1.1l-0.2,0.9l0.3,1.3l-0.9,1.7v1.3l0.9-1.5l1.6,0.4l0.9-1.7v-0.7
			l0.3-0.7l0.3,0.4l0.5-0.4l-1.1-3.2l-1.4,0.4l-2.6-1.5v-0.2h-0.5l-0.3-5l-0.7-0.7l-0.3,0.7v1.1h-0.7l-0.3-0.4l0.2-1.1l-0.5-0.9
			h-1.1l-0.2-3.9l0.5-0.4l0.2-1.3l0.5-0.4l1.1,1.7l0.3-0.7l0.7,0.2l0.5,2.6h1.1l0.2-1.5l0.3-0.4l3,0.4L115,100.2z M97.5,93.9v-0.4
			l-0.2-0.2h-0.2l-0.7,0.7V95l-0.2,0.2v0.2L95.2,97l0.2,1.7l0.9,0.7l0.7-0.7h0.7l-0.9-3.2l0.2-0.2l0.7,1.3l0.7-1.5l-0.7-1.7
			L97.5,93.9z M96.3,206.6l-0.2-1.5l-0.3-0.4l-0.5,0.6l0.2,1.7h0.3L96.3,206.6z M96.8,101.3l-0.9,0.2l0.7,3.7l0.5-1.1L96.8,101.3z
			 M96.8,136.6l0.2,1.1h0.5l2.8-0.9l-0.9-0.9L96.8,136.6z M97.1,142.5l0.3,0.9l0.9,0.4l0.2-0.9l-0.5-0.6L97.1,142.5z M98.9,111h-1.6
			l0.9,0.9L98.9,111z M97.3,121l0.3,0.7l0.3,1.5l0.7-0.4v-0.9l2.3-0.4l0.2-0.2V121l2.8,0.7l0.3-0.2l0.2-0.4l-3.8-2.4v-0.4l-0.3-0.4
			h-1.1l-0.2,1.7l1.1-0.9l-0.9,1.7h-0.2l-0.5,0.4H98l-0.3-0.4L97.3,121z M97.3,129.2l0.2,0.6l0.5,0.4l0.7-1.1l-0.2-0.6l-0.5-0.2
			l-0.5,0.2L97.3,129.2z M101.7,83.3H101l-0.9,1.1l-2.3,1.9l1.6,0.2l0.7-1.5l1.1,0.7l0.7-1.9L101.7,83.3z M98,114.3l-0.2,1.3
			l0.9,1.9l0.7-2.2l-0.3-1.3L98,114.3z M98.5,146.6H98l-0.2,0.2v0.6l0.3,0.2l0.3-0.2l0.2-0.4L98.5,146.6z M97.8,169.6l0.3,0.6h0.3
			l0.2-0.4l-0.3-0.4L97.8,169.6z M99.6,150.1l-0.7-0.9L98,149v0.6l0.5,0.6L99.6,150.1z M100.3,141.4l0.9-0.2l0.2-0.9l-0.3-0.9
			l-1.4-0.6l-1.4,0.6L100.3,141.4z M98.4,101.5l1.2,0.7l1.2-0.7l-1.2-0.9L98.4,101.5z M99.2,96.3l0.9-0.9l-0.3-0.7l-0.2-0.9
			l-0.3-0.2l-0.5,0.9L99.2,96.3z M99.2,166.5h-0.3l-0.2,0.9l0.2,0.2l0.5-0.4v-0.4L99.2,166.5z M100.6,182.1l1.4,0.6l0.5-0.2v-0.9
			l-1.2-0.4l0.5-1.5l-0.2-0.6l-1.4-1.3h-1.1l1.4,1.9l-1.1,3L100.6,182.1z M99.8,80l0.7,0.2l0.3-0.2l0.2-0.4l-0.5-0.4h-0.7V80z
			 M104.8,139l-2.1-0.2l0.7,1.7l-2.6,2.4l-1.1,1.9l1.2-0.4l1.8,0.9l1.1-1.3l-2.1,0.2v-1.3L104.8,139z M100.6,148.1l1.2-1.3l-0.2-0.6
			l-1.1,0.2l-0.9,1.1L100.6,148.1z M99.9,153.5l0.7,0.4l1.1-0.2l0.3-0.4v-0.6l-0.5-0.4l-0.7,0.4l-0.7,0.2L99.9,153.5z M100.5,123.4
			l-0.3,2.6l1.2-0.2v-1.3L100.5,123.4z M100.6,77l0.5,1.1l0.7-0.2l0.3-0.9l1.2-0.7l-2.4-0.9l-0.3,0.4V77z M102.7,209.2l-0.9,0.4
			l-0.5-0.6l-0.5,0.2l0.2,0.4l1.4,0.4L102.7,209.2z M101.7,96.1l0.2-0.2l-0.2-1.5l-0.3,0.9L101.7,96.1z M105.2,79.4l-1.8-0.9
			l-1.6,1.9l0.5,1.1l0.3-0.9l1.1-0.4l3,1.7l-0.7-1.5l0.7-2.6l-0.9-0.2L105.2,79.4z M105.4,131.4l0.9-8.2l-0.9-1.3v6.1l-0.7,0.6H104
			l-0.3-1.1l-1.4,0.2l0.2,2.2l-0.5,1.1v0.9h1.4l0.5-0.6L105.4,131.4z M104.5,149.2l0.2-1.5l-0.7-0.4l-1.8,0.6l-0.3,0.9l0.9,1.7h0.7
			L104.5,149.2z M103.8,93.5v-0.4l-0.9-1.3l-0.5,0.7l-0.2,2.2h0.2l0.5,0.4v0.2l0.9,1.1l1.2,0.2l0.2-0.7l0.7,0.7l1.9-1.7l-3-0.2
			l-0.7-1.3L103.8,93.5z M102.4,123.8h0.3l0.5-0.4l-0.2-0.4l-0.3-0.2l-0.5,0.4L102.4,123.8z M104,196h0.7l0.9,0.2v-0.6h-0.2
			l-0.2-0.2H105l2.3-5.9l-0.2-0.2h-0.3l-3,2.6h-0.7l-0.3,1.1l1.1,0.9v-0.6l0.5,0.2l-0.2,0.2l0.2,1.3l-0.3,0.6h-0.3v0.2h0.2L104,196z
			 M104.1,161.8l0.2-0.2l-0.5-2.6l-0.5-0.4l-0.2,1.1l0.5,1.1l-0.2,1.7l0.3,0.9h0.3l0.2-0.2L104.1,161.8z M104.7,126.2l-0.3-0.4h-0.5
			v0.4l0.3,0.2L104.7,126.2z M104.3,134.4l-0.5,0.4l0.3,0.4l0.3-0.2l0.2-0.2v-0.4L104.3,134.4L104.3,134.4z M109.7,177.8l-0.2-0.9
			H109l-0.2,0.6h-0.5l-0.3-0.4l-0.3-2.8l-0.7-0.2l-0.3-1.7l-2.6,1.1l2.3,1.1l1.2,2.8l-0.9,1.3l-0.2,1.5l-1.1,1.1l1.4,1.1l0.9-1.7
			l-0.5-0.4l0.2-1.1l1.6,0.2L109.7,177.8z M104.3,207.7l2.4,1.3l0.5,0.4l-1.1-1.5l-1.8-0.4L104.3,207.7z M109.7,147l-0.2,0.4
			l0.3,0.4l0.7-0.4v-1.5l-0.2-0.2l-0.2,0.9l-0.5,0.2L109.7,147l-2.6-2.2h-1.4l-0.9,1.1l0.9,1.3L109.7,147z M106.1,159.4l-1.1-0.6
			l0.5,2.4l0.5-0.2l0.2-0.6L106.1,159.4z M107.6,211.2l-0.9-0.9h-0.5l1.1,1.1L107.6,211.2z M107.1,125.3l-0.2,1.3l-0.3,0.9l0.2,0.9
			l0.7-0.2l0.3-1.9l0.7-0.7L107.1,125.3z M110.6,143.6l-3.8-0.4l0.2,0.6l0.9,0.6h1.8L110.6,143.6z M109.6,201l-0.9-0.9l-0.5-0.4
			l-1.1,0.4l2.4,1.3V201z M110.3,123.8l0.2-0.4l-1.4-1.1l-1.4,1.1L110.3,123.8z M108.3,133.4l-0.5,0.6v0.4h0.5l0.5-1.7l-0.7-0.6
			L108.3,133.4z M114.8,96.9h0.2l0.5-0.4l1.4-0.4l-0.5-0.9l-0.7-0.2l-0.5-1.5l0.2-1.5l-0.3-0.4l0.7-3.5l-0.2-0.7l-0.5-0.2l-1.4,2.8
			l-0.9-0.7h-0.9l0.3,1.5L111,90l-1.2,0.7l0.2,1.3l0.7,0.2l-1.2,0.7l-0.3-0.4l-0.2,1.1l-0.7,0.7h0.7v0.2l0.2-0.2l1.9,1.1l1.1-1.1
			h-1.8v-0.2l-0.2-0.2l1.1-1.5l1.6-0.4l0.7-1.3l-0.5,1.9h-0.5l-0.3,0.4l0.2,1.5h1.4l-0.2-0.7l-0.5-0.4V93l1.9,2.2l-0.2,0.9l-0.3,0.2
			l0.2,0.4l-0.5-0.2l-0.9,0.9h1.8l0.2-0.2L114.8,96.9z M110.4,108l-1.2,3.5l1.1-0.7l1.6,0.9l0.5-0.2v-0.9l-1.2-0.9l0.7-1.9l-1.6-1.7
			l-0.7,0.7l0.5,0.4L110.4,108z M109.2,127.1v0.9l0.9-0.7v-0.4L109.2,127.1z M109.7,158.7l1.1,1.1l-0.2-0.6l-0.7-0.6L109.7,158.7z
			 M112.4,131l0.3-1.7l-1.4,1.7l-0.5-0.4l-0.2,0.9L112.4,131z M111.7,162.9l-0.3-0.6l-0.5-0.6v0.4L111.7,162.9z M111.5,142l-0.3,0.6
			v0.2l0.3,0.2l0.3-0.4v-0.4L111.5,142z M111.5,123l0.5-0.2l0.5-0.7l-1.2,0.2L111.5,123z M114.6,154.6l-0.7-1.1l-1.4-0.2l-1.1,1.1
			l2.1,0.6L114.6,154.6z M113.8,188l-1.1,1.7l-0.5-0.4l-0.2,0.9h0.7l0.9-0.6L113.8,188z M114.5,109.3h0.2l0.2-0.9l-0.2-0.2h-0.9
			l-0.7,0.7v0.9l1.1,0.9l0.7-0.2L114.5,109.3z M113.8,124.5v0.4l0.3,0.2l0.3-0.9l0.3-4.3l-1.1,1.1l0.3,1.5l-1.1,0.7L113.8,124.5z
			 M113.6,111.5l-0.2,0.9v0.2l0.3,0.2l0.5-0.7L113.6,111.5z M115.3,148.5l1.1,0.2v-0.4l0.2-0.2l-0.3-0.9l0.2-0.4l-0.3-0.2l-1.2,0.2
			l-0.2,0.9L115.3,148.5z M117.4,142.9l-0.5-0.6l-0.7-0.2l-0.9,0.4l0.2,0.9h0.5l0.5-0.4H117.4z M115.9,111.5l0.5,0.4l0.5-0.2
			l0.2-1.9l-1.1,0.9L115.9,111.5z M116,78.7l0.3,0.7h0.3l0.2-0.2l-0.2-0.7l-0.7-0.7V78.7z M117.1,80.7l-0.9,1.9l0.9,1.7l0.5-3.5
			L117.1,80.7z M117.4,119.3l-0.3-1.5l-0.3-1.3l-0.5,1.5L117.4,119.3z M117.4,122.5l-0.2-0.7l-0.5-0.2l-0.3,0.2l-0.2,0.7l0.7,1.3
			L117.4,122.5z M117.3,154.6l-0.3-1.7l-0.7,0.9L117.3,154.6z M117.4,91.5l-0.2-0.9l-0.2-0.2l-0.3,0.2l-0.2,0.9l0.3,0.2L117.4,91.5z
			 M118.1,116.9l-0.7-0.7l-0.9-0.7l0.7,1.3H118.1z M117.4,145.7l-0.2-0.2l-0.7,0.4l0.5,0.4h0.3V145.7z M119.4,93.9L119,93H118
			l-0.9,1.1l2.1,0.7L119.4,93.9z M118.8,85.2l1.9,0.7l0.7-0.2l-0.2-0.9l-1.6-0.4l-0.5-0.9L118.8,85.2z M119.5,89.8l0.3-0.7l-0.2-0.7
			l-0.5,0.4v0.7L119.5,89.8z M121.6,158.3l-0.7-0.4l-0.9,0.2l-0.3,0.2l0.5,1.1l1.2-0.6L121.6,158.3z M120.2,81.6l0.3,0.7l0.5,0.2
			v-0.7l-0.5-0.7l-0.3,0.2V81.6z M123.7,149.4l-1.1-1.1l-0.7-0.4l-0.5,0.2l-0.2,0.6l0.3,0.9l1.1,0.6L123.7,149.4z M121.6,92l1.9-0.2
			l0.9,0.7h0.7l0.2-1.7l-0.5-0.7l0.3-2.2l-3.3-0.2l0.5,1.1v1.1l-0.7,0.2C121.6,90,121.6,92,121.6,92z M121.6,93.9l0.2,0.9l1.2,0.9
			l0.5-0.9l-0.3-0.9H121.6z M153.5,140.3l2.3-1.1l2.1-1.5l1.8-2.6l1.2-3.2l0.7-3.5l0.2-3.5l-0.2-3.7l-0.4-3.7l-0.7-3.2l-1.2-3.2
			l-1.6-2.6l-1.9-1.9l-2.4-1.3l-3.9-1.1l-2.8-0.4l-8.8-0.2h-2.8l-8.9,0.7l-2.1,0.2l-1.2,0.7l-1.1,1.3l-0.2,2.4l0.2,5l0.3,3.5
			l0.3,3.7l0.2,3.7l-0.3,11.9l0.2,2.4l0.3,1.3l1.2,0.6l2.1,0.4l9.1,0.9h2.8l11.6-0.9L153.5,140.3z M122.5,77.7l1.4,1.9l-0.3,0.9
			l0.7,0.2l-0.3-2.6L122.5,77.7z M128.8,152l0.2-0.2l-0.7-0.9h-1.1l-1.1-1.3l-1.4,0.2l-0.3,0.9l1.6,1.3l1.2-0.6l1.6,0.9L128.8,152
			L128.8,152z M124.8,83.9l1.2-0.2l0.5,0.7h0.5v-0.7l-1.6-0.7L124.8,83.9z M127.2,88.7l-0.3,0.2l0.3,0.9l0.3-0.4v-0.4L127.2,88.7z
			 M127.9,87.4l0.2,0.7l0.5,0.2l0.5-0.2l0.4-0.7l-0.2-0.7l-0.7-0.2l-0.5,0.2L127.9,87.4z M130.2,157.4l-0.7-0.4l-0.5,0.2v0.4
			L130.2,157.4z M130.6,146.8l-0.9,0.2l-0.4,3l1.2-2.2L130.6,146.8L130.6,146.8z M131.6,80.3l0.4,1.1h0.9v-0.9l-0.4-0.7v-1.3
			L131.6,80.3z M131.6,86.6l0.2,0.4h0.7l0.2-0.2l-0.2-0.4l-0.7-0.2L131.6,86.6z M133.5,93.9l-1.2-0.2l-0.2,0.9l0.2,0.4l0.5,0.2
			l0.7-0.2l0.5-0.7L133.5,93.9z M133.4,152.9l0.4-0.6l-0.4-0.4l-0.5,0.4l-0.2,0.9L133.4,152.9z M132.8,155.7l0.5,0.4l0.7-0.2
			l-0.4-0.9l-0.7-0.2L132.8,155.7z M134.9,161.3l-0.7-0.6l-0.7,0.2l-0.4,0.9l0.2,0.6l0.9-0.2L134.9,161.3z M134.8,78.5l0.4,1.3
			l0.2-0.4l0.2-0.2v-0.4L134.8,78.5z M136.5,87.8l-1.4-0.2l-0.2,0.4l0.7,0.2l0.4,0.7l0.5,0.2l0.4-0.4L136.5,87.8z M139.8,152.4
			l-0.5-0.4l-0.4,0.4l0.2,0.4h0.5L139.8,152.4z M141.1,146.8l-0.4-0.2h-0.2l-0.2,0.2l0.4,0.6h0.4L141.1,146.8L141.1,146.8z
			 M141.8,153.1h0.4l0.2-0.2l-0.2-0.4l-0.7-0.2l-0.2,0.4L141.8,153.1z M143.3,167.8l-1.1,0.2l-0.2,1.5L143.3,167.8z M145.1,157.9
			l-0.4,0.9l-2.4,0.6l0.9,0.4l0.4,1.3v0.4l0.4,0.2l0.2-0.2h0.2L144,160l1.2-0.2l0.2-0.2l0.2-1.9l-0.5-1.1l-0.2,0.6L145.1,157.9z
			 M143.9,169.1l-0.2-1.9l-0.4,1.1L143.9,169.1z M143.9,163.7h0.5v-0.9l-0.7,0.4L143.9,163.7z M146.7,173.3l-1.4,0.4l-0.9-0.4
			l0.2,1.1h1.8L146.7,173.3z M145.3,162.4l-0.2,0.4l0.4,0.4l1.2-1.3l-0.5-0.6l-0.7-0.2l-0.4,0.4L145.3,162.4z M146.8,164.8l-0.4-0.4
			h-0.2l-0.9,0.2v0.6l0.5,0.4L146.8,164.8z M147.7,175.2h-0.2l-0.2,0.2v0.4h0.4L147.7,175.2L147.7,175.2z M149.1,164.8h0.5l0.4-0.9
			l0.4-0.4v-0.9l-1.1-0.4l-0.5,0.4l-0.2,1.3L149.1,164.8z M158,159.8l0.7-1.9l-1.2-2.4l-1.4,0.4l-0.4,0.4v0.4l0.4,0.2l1.1,2.2
			l-0.5,0.4l-0.2,1.3l-0.7,0.2l-0.7,1.1h-0.5l-0.4-0.6l-1.8,1.1l1.2-0.2l-0.7,1.7l0.9,1.1l-0.5,0.4l-1.1-0.2v0.6l0.4,0.6v1.3
			l-1.1,0.6l-0.9-0.9H150l-0.5,0.4v0.6l1.1,0.9l1.4,0.6l1.9-2.2l1.8-0.4l0.2-0.9l-0.5-0.9l-0.9,0.2l-0.2-1.1l1.6-0.4l0.7-1.7
			l-0.4-0.9l2.4-1.3l-0.2-0.4h-0.2L158,159.8z M153.5,186.1l-0.2-0.4l1.2-2.8l2.8-1.7l0.5-1.1l-0.9-1.3l-0.9,1.3h-0.7v-0.4l-0.2-0.2
			l0.2-1.5l1.8-0.9l1.2-5.4l1.8,1.3l-0.9,0.9l-0.2,0.6l0.2,0.2v0.9h0.5l0.7,1.3l-0.7,0.6l-0.7-0.2l0.2,3.2l-0.9,1.3l0.2,0.6l0.7-0.9
			h0.2l0.2,0.2l1.1,0.2l0.2-1.3l-0.4-0.2l1.8-0.9l1.9,2.8l-0.9,0.2l-0.2,1.3l1.1-0.6V183l1.2-0.4l0.7,0.4l0.9-0.2l0.2-0.9l-0.2-0.4
			l0.5-1.7l-0.7,0.4l-0.7-0.4l-0.4-0.9l-0.9-0.6l0.9,3l-1.1-0.2l-1.6-4.3l0.5-1.1h-1.1l-0.4-0.4v-0.4l0.5-0.6v-0.6h-0.5l-0.2-0.6
			l0.5-1.1h0.4l0.9,1.1l-0.5-2.4h-1.1l-0.4-0.4h-0.7l-0.2-0.6l1.1-0.6l0.5-1.3L162,167v-0.4l-0.4-0.4l-0.4,0.4l0.2,1.1l-0.5,1.1
			l-1.6-0.4l-1.6,0.6l0.2,1.7l-0.4,0.4l-1.6,0.4v0.2h-0.2l-1.6-1.9l-0.2,0.4l0.2,0.9h-0.5l-0.4,0.4l2.4,3.7l-0.4,0.9l-3.3-2.8
			l-2.8,6.1l0.2,1.5l0.5,0.6l0.2-0.2l-0.2-0.2v-0.2l2.3-1.5l0.4,1.3l-0.7,0.2l-0.7,1.9l0.4,1.1l0.7,0.4v0.4h0.2l0.2,1.1l0.5,0.4
			L153.5,186.1z M151.9,151.8l0.7-0.4l1.6,1.3h1.4l-0.5-1.7l-0.7,1.1l-3.5-1.7l0.5,0.9l0.2,1.7l1.1,0.4L151.9,151.8z M151.2,162.4
			l-0.2,1.5l0.4,0.2l0.5-0.6v-1.1L151.2,162.4L151.2,162.4z M152.6,160.5l-0.2-0.2V160h-0.7l-0.5,0.6L152.6,160.5z M152.6,157
			l-0.2-1.1l-0.9-0.2l0.2,0.9l0.5,0.6L152.6,157z M153.7,182.8l-1.2-0.9h0.4l0.2-0.2h0.2l0.2,0.2h0.2l0.2,0.2L153.7,182.8
			L153.7,182.8z M154.2,166.8h0.2v0.2l-0.7,1.1v-0.4l-0.9-1.1l0.4-0.2l0.2-0.2L154.2,166.8z M154.5,181.5H154v-1.3h0.7L154.5,181.5z
			 M154.9,185.2l-0.2-0.2l-0.2-0.4l-0.4,0.2l0.2,0.4l0.5,0.2L154.9,185.2L154.9,185.2z M155.4,185l1.2,0.6l0.5,0.6l-0.7,1.9l0.4,0.4
			l-0.2,0.6h0.7l0.4-0.4l0.7,0.2l1.4-1.1l0.5,0.2l0.4-0.2v-0.4l-0.4-0.2l-1.4,0.6l-0.9-0.4l-0.5-0.9l1.6-0.9l1.6,0.4l-0.4-1.5
			l-1.2-0.9l-0.7,0.6l-3.1-0.4L155.4,185z M157.5,194.5l-0.4-1.1l-0.7-0.9v-0.9l-0.7-0.6l0.2,1.5l0.4,0.2v1.3L157.5,194.5z
			 M158.6,196.7l-1.6,0.9l1.1-0.2L158.6,196.7z M157.3,163.7l-0.2,1.1l0.2,1.1l0.2-0.2h0.4v-1.1L157.3,163.7z M158.9,154.4h0.2
			l0.2-0.4l-0.5-0.6l-0.2,0.4L158.9,154.4z M158.9,162.6l0.5,1.1h0.5l0.2-0.6l-0.5-1.1l-0.5,0.2L158.9,162.6z M159.1,190.8l0.2,0.2
			h0.2l0.2-0.9l-0.2-0.2h-0.4L159.1,190.8L159.1,190.8z M160.5,198.2l0.5-0.4h-1.2l-0.5,1.5l0.4,1.5l0.7,0.4l0.4-0.6L160.5,198.2z
			 M160.3,156.1l-0.2-0.4h-0.4l-0.2,0.2v0.4l0.4,0.2L160.3,156.1z M161.2,160.7h-0.5l0.4,0.6h0.7L161.2,160.7z M161,193.4l1.8,2.2
			h0.5v-1.1l-0.4-0.2v-0.6l1.1-0.9l-0.4-0.4l-2.1-0.4l-0.5,0.4L161,193.4L161,193.4z M162.2,199.5l-0.4-0.4l-0.5,0.2v0.4l0.4,0.2
			L162.2,199.5z M161.9,163.3l0.4,1.7l0.2,0.4h0.4l-0.4-2.2L161.9,163.3L161.9,163.3z M172.9,209.9v-0.4l0.2-0.2l0.7-1.1l-1.1-2.4
			l0.2-0.6l-0.4-0.6l0.2-0.6l-0.5-1.7l-3.3-2.8l-0.5,0.4h-0.2v0.2l-0.7-0.6l-0.2-4.8l0.7-0.4l0.5,0.2l0.4-0.2v-0.4l-1.1-0.2
			l-0.9,0.4l-0.5-1.1l0.5-0.6l1.4-0.2l-0.2-0.9l-1.8-0.4v-0.4l0.5-0.9l-0.2-1.1l0.5-1.3l-0.4-1.1l-1.9-1.1l-0.4,0.6v0.4l1.1,0.4
			l0.2,0.9l-0.2,0.2l-0.5-0.2l-1.4,0.9l-1.1-0.4v-0.4l-0.9-1.3l0.4,2.4h0.7l0.4,1.1l-0.2,1.1l-0.4,0.4l0.9,0.4l1.2-1.1l1.4,0.6
			l-0.5,3h-0.9l-0.9,2.4l0.2,0.6h1.2l-0.4,2.2l0.7,0.9v0.9l0.5,0.4l0.5-1.1h0.7l0.4,0.4l0.2,0.9l-0.2,0.6l0.4,1.1l1.1,0.2l0.4,0.4
			l-0.7,0.9l-0.2,0.9l0.4,0.6l3.1,0.2l0.9,1.5l-0.2,0.6l-3,0.6l0.4,2.6l-0.9,1.7h0.7l0.2-0.6l0.7,1.7l0.9,0.2l0.4-0.2V214l-0.2-0.2
			l-0.5,0.2l-0.4-0.9l0.2-1.5L171,211l1.4-0.6l0.9,0.9v-0.6L172.9,209.9z M163.6,200.6l-0.7-0.2l-0.5,0.2v0.4l0.5,0.2L163.6,200.6z
			 M163.5,185.2h-0.4v0.6h0.5v-0.4L163.5,185.2z M164.2,199.9l0.4-0.4v-0.2l-0.9,0.6H164.2z M165.2,211l-0.5-0.9l-0.4-0.4h-0.2
			l-0.2,0.6l0.5,1.1l0.4,0.2L165.2,211z M164.9,172.4l0.7-0.4l0.2-0.6v-0.2h-0.2l-0.5,0.4L164.9,172.4z M165.4,144l0.5,0.4l1.2-1.5
			l-0.4-1.3l-0.4,1.5l-0.7,0.2L165.4,144z M165.9,174.8l-0.5,0.2l0.2,0.2l0.5-0.2v-0.2H165.9z M165.6,194.7l0.9,1.1h-0.4
			L165.6,194.7z M167.7,206.4l-0.4-0.6l-0.2,0.9l0.5,1.1V206.4z M167.3,150.7l0.4,0.9l0.9,0.2l0.9-1.7l-0.9-0.2l-0.2,0.2H168
			L167.3,150.7z M168,173l-0.5,1.7l-0.2,0.4l0.2,0.2h0.4l0.9-3.9l-1.4-0.2L168,173z M168,178.7l0.4-0.2l0.2-0.2l-0.4-0.4h-0.4
			l-0.2,0.2L168,178.7z M169.6,184.3l-0.5-0.6h-0.5l-0.9,1.3l0.4,0.4h0.9l0.5-0.4L169.6,184.3z M169.1,186.9l-0.7-0.4l-0.4,3h0.7
			l0.9-1.3L169.1,186.9z M168.7,210.5h-0.4l-0.2,0.2v0.4l0.2,0.2l0.4-0.4V210.5z M168.7,197.1l-0.2,0.4l0.2,0.2h1.1l-1.2-2.6
			L168.7,197.1z M170.5,197.3h0.4l1.6-1.1l-0.2-1.5l-1.1-0.4l-0.7,1.3L170.5,197.3L170.5,197.3z M171.3,135.3l0.4,1.3l1.8,0.9
			l1.4-1.5l-2.8-1.3L171.3,135.3z M172.2,100.8l0.5,0.9l0.2-1.1l-0.2-1.1l-0.5,0.2V100.8z M172.2,192.6l0.5,0.2l0.4-0.4h0.2l0.5-0.4
			l0.2-0.9v-0.2l-0.2-0.2l-0.5,0.2l-0.4,1.1h-0.7L172.2,192.6L172.2,192.6z M173.1,218.1l-0.5-0.2l0.4-1.9l-0.7,0.9l0.5,1.9
			L173.1,218.1z M173.1,199.5l-0.5,0.2l-0.2,0.6l0.2,0.2l0.9-0.6L173.1,199.5z M173.8,194.9l-0.2-0.4l-0.7-0.2v0.6l0.4,0.4
			L173.8,194.9z M174,197.5l0.5,0.2l-0.2-0.6l-0.5-0.6L174,197.5z M177.8,219.9l-2.8-1.3l-0.7,0.4l-0.2,1.1l0.4,0.4L177.8,219.9z
			 M174.3,127.7l0.5,0.4l0.7-0.2l0.5-1.1v-0.2l0.7-0.9l-0.5-0.9v0.2h-0.5v0.9l-0.4,0.2l-0.2,0.4l-0.7,0.2L174.3,127.7z M174.7,209.2
			l-0.4,1.1l0.5,0.2l0.5-0.2l0.2-0.9l-0.4-0.4L174.7,209.2z M174.5,193.6l0.4,0.4l0.4,1.9l0.9-1.3l-0.4-1.3v-0.2l-0.9-0.2
			L174.5,193.6z M177.3,210.3l-1.4,1.5h-0.2l-0.7,0.6l-0.2,0.6h1.4l-0.2-1.1l1.1-0.4L177.3,210.3z M175.5,203.8h0.4v-1.1l-0.9-0.2
			v0.9L175.5,203.8z M175.4,217.3h-0.2l-0.2,0.6l0.2,0.6l0.4-0.4v-0.6L175.4,217.3z M176.6,221.8h-0.5v0.4l0.4,0.2l0.2-0.2V221.8z
			 M176.6,198.6l0.7,0.9v0.6l0.7-0.9l-1.2-1.5L176.6,198.6z M177.5,201.4v-0.6l-0.2-0.2l-0.4,0.4l0.2,0.4L177.5,201.4L177.5,201.4z
			 M177.1,213.1l-0.2,1.3h0.2l0.2-0.2L177.1,213.1z M178.3,216.2l-0.7-0.6h-0.4l-0.2,0.2l1.2,2.2L178.3,216.2L178.3,216.2z
			 M178.9,202.7l-0.5-0.4l-0.5-0.2l0.5,1.9l0.5-0.4V202.7z M178.2,110.2l0.5,0.9l0.9-0.2l1.1,0.9v-1.1l-0.7-1.9l-0.5-0.2l-0.9,0.7
			L178.2,110.2z M180.1,135.8l-0.2-1.3l-1.4,0.2l0.5,1.3l0.5,0.2L180.1,135.8z M180.4,124.3l-0.2-0.2h-0.7l-0.2,0.2h-0.2v0.2h1.2
			L180.4,124.3L180.4,124.3z M180.3,202.5l-0.7,0.6l0.5-0.2L180.3,202.5z M184.3,112.8l0.4,0.9l4.2,1.3v-0.4l0.2-0.2l-1.1-1.1
			l-1.4-0.2l-0.5,0.2l-0.7-1.3l-0.9,0.2L184.3,112.8z M185.7,143.1l-0.5,0.6v0.9L185.7,143.1z M185.9,205.8l-0.4-0.6h-0.2l-0.2,0.2
			l0.2,0.9L185.9,205.8z M188.3,134.7l-0.4-3.2v-0.6l-0.4-0.2l-0.5,0.4v0.9l-0.7,1.3h-0.2l-0.5,0.4l0.2,1.1l0.5,0.6h1.6l0.2-0.6
			L188.3,134.7L188.3,134.7z M186,108.2l0.4,0.9h0.2l0.2-0.9l-0.2-0.4h-0.4L186,108.2z M189.5,125.1l0.2,0.7h0.4l0.4-0.7l-0.2-0.4
			h-0.5L189.5,125.1z"/>
		<path d="M271.3,69l10.7-0.2h2.8l10.5,0.9h2.8l10.5-0.9h2.8l23.8,0.4l3-0.2l6-0.7h4.4l2.5,0.7l1,1.1l0.4,1.5l0.4,2.8v5.8l-0.4,5.4
			v3.7l0.2,5.4l0.2,3.2l-0.2,3.2l-0.4,2.6l-0.7,1.5l-0.9,0.9l-2.1,0.4H347l-2.8,0.2l-16.5-0.4H325l-8.9,0.4h-2.8l-9.1-0.4l-7.9-0.7
			h-2.6l-1.4,0.2l-1.8,0.4l-0.9,1.1l-0.2,1.3l-0.4,2.4l-0.4,5.2v3.5l0.2,3.7l0.2,2.4l0.4,1.5l0.7,1.1l1.9,0.6l5.6,0.4l5.6-0.4h16.6
			l19.6-1.3l5.4,0.4l1.9,0.4l1,1.1l0.5,1.3l0.2,2.4l0.4,3.7l0.2,3.7v7.1l0.4,5l-0.4,6.5l-0.4,2.6l-0.7,1.5l-1.2,1.1l-1.8,0.4h-3.5
			l-7.9-1.1l-2.8-0.2l-14,1.1l-11.2-0.4h-2.8l-7-0.6l-3,0.2l-2.1,0.2L290,165l-0.5,1.5l-0.2,3.2l-0.5,5.4l-0.2,3.5v4.8l0.2,2.2
			l0.5,1.5l0.7,0.9l1.9,0.2l9.6,0.4h2.8l9.5-0.9l12.4,0.9h2.8l12.4-0.9h2.6l2.6,0.2l6.3,0.9l1,0.6l0.7,1.3l0.2,2.4l0.5,11.9
			l-0.2,3.5l-0.7,11.7l-0.2,2.2l-0.7,1.5l-0.9,0.9l-22.9,0.9H327l-9.3-0.9l-2.8,0.2l-9.1,0.9l-2.8,0.2H291l-9.1-0.9h-2.8l-15,1.1
			l-6-0.4l-2.1-0.4l-1.2-1.1l-0.5-1.5l-0.4-2.4l-0.4-5l-0.2-3.5l0.2-3.2v-3.2l0.7-11.5v-3.5l0.2-11.5l-0.2-3.5l-0.5-11.5l-0.2-3.5
			l0.4-11.7v-18.4l0.7-11.5l-0.2-3.5l-0.5-11.5l-0.2-3.5v-5.2l0.4-6.5v-3.2l0.5-11.3l0.2-3l0.5-1.7l0.9-0.9l1.4-0.2l2.3-0.4
			L271.3,69z M260.9,210.5l-0.7-0.4l-0.4,0.4v0.9l0.5,0.9l2.1-1.5l-0.7-0.6L260.9,210.5z M265.5,82.6l-5.2,1.3l1.2,0.4l1.4,1.7
			l1.4-0.4l-1.9-1.1v-0.4l5.1-2.2l-1.9-1.5L265.5,82.6L265.5,82.6z M270.9,96.3l-0.5,0.7l0.2,0.2v0.4l-1.6,1.3l2.3,3.9h-0.2v0.2
			h-0.2l-0.5,0.4l-0.2-0.2H270l-3.1-2.4l-4.7,3.2v0.2H262l-0.7,0.9v3l0.2,0.2l0.4-0.2V108l-0.2-0.2l3.7-1.1v1.7h-0.9l-1.8,2.6
			l1.6,5.2h0.5v-0.7l0.7-1.3l1,3.9l-2.3,3.2l1.6,0.4l0.5,0.9h2.5l0.4,0.7l0.5,0.2l0.2-0.7l-0.2-0.4l-2.1-0.7l-0.9-3l2.5,0.4l1.8,2.2
			l0.4-2.2l-5.4-5.4l0.4-0.9l0.9-0.7l1.2,0.2v0.2l4.2-2.6l-0.2-1.5l-0.7-0.7l-1.6,1.1l-0.7-0.2l-0.2-1.1l0.5-0.7l0.2-1.1l2.5-0.4
			l3.1-7.2l-0.5-1.1l-2.3,0.7l-0.4,0.4l-1.2-2.2L270.9,96.3L270.9,96.3z M262,80.7l0.9,0.9h1l0.2-0.2v-0.4l-0.9-0.7L262,80.7z
			 M262.7,203.4l-0.2,0.2l0.2,0.4h0.7l0.2-0.2l-0.5-0.4H262.7z M263,127.3l0.2,0.2l-0.5,1.7l1,1.7l0.2-1.7l-0.2-4.1L263,127.3z
			 M262.9,137.1l0.5,0.4l0.4-0.4l-0.2-0.6l-0.9-0.2L262.9,137.1z M265.3,90l-1.9,0.4l-0.2,1.1l0.5,1.5l1,0.7l0.2-0.4l0.4-0.2l0.2-3
			L265.3,90L265.3,90z M263.2,139.2l0.4,0.6h1l-0.5-0.9l-0.9-0.4L263.2,139.2L263.2,139.2z M265.5,147.2l-2.1,1.9v0.6l0.5,0.2
			l0.4-0.2l3-3.7l-1.6-1.5L265.5,147.2z M263.4,213.4l0.5,0.6l0.9-0.2l-1.4-1.1L263.4,213.4L263.4,213.4z M270.7,124.1l0.7,0.4
			l-1.2,2.8l-0.5,0.2l0.7,1.3l2.3-0.2l0.4,1.3l0.9,0.6l-2.5,3.2l-1-0.6l-2.8,2.6l1.6,1.3l-1.8,2.4l0.4,1.5l-0.5,1.1l0.4,1.1l1.2-0.6
			l0.7,0.4l0.4,1.1l-1,3.2l1,0.6v1.5l-1.4,0.2l-0.7,1.1l0.2,0.9l2.5,1.5l0.4,1.1l0.9,0.6v2.6l-0.7,0.6h-1.6l-2.3-1.9l-1.9,4.1
			l-1.4,0.4l0.7,0.6l0.9-0.6l-0.4,2.8l0.9,1.3l0.7-0.2l0.4-0.6l-0.2-0.6h-0.5l1.2-4.1h0.7l0.5,0.4h0.5l0.7,1.9l0.4-1.9l2.1-1.3
			l0.2-3.7l0.7-0.6v-1.1l0.5-0.6l0.4-2.6l-2.3-6.5l-1.2,0.2l-0.5-1.5l0.5-1.5l-0.5-0.9l2.6-2.4l0.2-0.9l1.2,0.2l0.4,0.6h0.7l0.2-0.2
			l-0.4-1.1l-2.1-0.6v-1.9l1.2-0.2l1.6,0.9l0.5-1.1l-1.2-0.6l-0.7-1.7l1.2-0.6l0.5-1.5l1.6-1.3l-0.2-3l-0.5-0.2l-0.9-1.3l-0.7,0.2
			l-0.2,0.7l0.9,1.5l-0.2,1.1l-0.2,0.2h-0.2l-0.7-0.9l-2.1-0.2l-0.9-1.3v-2.8L270.7,124.1z M271.4,92l-0.9-0.2l-0.2-0.4H270
			l-0.5,0.4v0.7l-0.5,0.9v0.4l-1.2,1.3h-0.9l-0.5,0.4l-2.3,3v0.2l-0.2,0.2v0.4h0.2v0.4l0.7-0.2v-0.2l1.2-1.1l-1,1.5l2.5-2.4
			l-0.2-0.2h-0.4l0.2-0.7l4.9-3.5l0.7,0.2l0.2,2.6l-0.4,0.7h0.2l0.2,0.2l1.4-0.4l1-1.7v-3.5l-0.9-0.4L271.4,92z M264.3,156.1
			l-0.2,0.2l-0.2,0.9l0.7-0.2v-0.9H264.3z M264.3,197.3l0.2,0.2h0.2l0.2,0.2v-0.2h-0.2l-0.2-0.2H264.3z M267.8,204l-1.2,0.4
			l-0.9,1.7l-1,0.2l-0.4,0.4l0.5,0.9h0.5l2.6-3.2V204L267.8,204L267.8,204z M265.7,110.4l0.5,1.1l-0.4,0.4l-1.2-1.7h0.9L265.7,110.4
			z M265.1,167.4l-0.5,2.6l0.7-0.2v-0.4l-0.4-0.4l1.6-1.9L265.1,167.4z M265.1,85.7l-0.4,1.1l1-0.4l0.5-0.9l-0.5-0.4L265.1,85.7z
			 M265.5,123.4l-0.2,0.9l0.2,0.2l0.7-0.2l0.2-1.1L266,123L265.5,123.4z M265.8,138.8l-0.5,0.4l0.5,0.4l0.7-0.2l0.2-0.2l-0.2-0.4
			L265.8,138.8L265.8,138.8z M266.4,171.9l-0.9,0.9l0.2,1.1l2.5,1.3l1.8,0.9l-2.3-4.1H266.4z M266,88.7l0.4,1.9l0.7,0.2l0.4-1.3
			l-0.5-1.5L266,88.7z M268.3,108.9l-0.9,1.7l-0.7-0.2l-0.2-0.9l0.2,0.2v-0.2l0.5-0.9L268.3,108.9z M266.5,127.5l0.2,5.4l0.7,0.6
			l0.7-1.3l-0.2-0.4l0.2-1.1l0.9-0.2l0.5,0.4h0.5v-0.6l-0.4-0.2l-0.4-1.5l-1.8-1.1L266.5,127.5L266.5,127.5z M266.7,176.9l-0.2,0.2
			l0.2,0.6h0.4l0.4-0.4l-0.4-0.4L266.7,176.9L266.7,176.9z M266.9,216.8l-0.2,0.4l0.9,0.9l0.9-0.9l-0.9-0.6L266.9,216.8z
			 M267.8,171.1v0.9l0.7-0.2l0.2-0.9l-0.2-0.2L267.8,171.1z M267.9,124.3v0.7l0.4,0.7l0.2-0.7v-0.7H267.9z M268.5,199.1l0.4,0.4
			v-0.2l-0.4-0.4V199.1z M269.3,80.3l0.9,1.5v0.9l0.7,0.9l-0.9,4.1l0.5,1.3l3.1,1.5l1-0.4l0.5-1.1l-2.8-1.7v-1.9l4.4-0.7l-0.4-1.1
			l-1.2-0.7l0.2-0.2l-1.4-1.1h-0.9l-0.9-1.7l-2.1-0.7L269.3,80.3z M282.6,93.1l-0.5,4.3l-1.2,0.2l-1.6-2.6H277l-0.7,5.2l1.2,3.2
			l-1.6,0.2l-1.2,1.9l0.7,0.7v2.2h-1.2l-0.7-0.7l-1.8,3.9l-1.6,0.7l-0.4,1.3l1.2-0.7l1.6,1.9l0.9-1.5l-0.5-1.1h0.2l0.2-0.2h0.7v0.2
			h-0.2l0.5,0.9l1.6,0.2l0.5,5l-2.1-1.5l-0.2,2.6l1.6,0.2l0.4-0.4l1.6,0.7l0.7,1.3l1.2,0.4l0.5-0.7l0.2-1.1v0.2l1.8-1.5l-1.2-0.2
			l-0.5-1.1l0.2-1.5l-0.5-1.3l-0.9,4.3h-1.4l1-7.8l1.2-0.7l-1.4-1.3l-0.2-1.1l1.4-0.7l0.4-0.7l-0.7-0.7l0.2-0.9l1.8-0.7l0.4,2.4
			l0.5-0.7l0.4-2.8l-2.1-3.2l0.2-1.3l0.7-0.2l0.9,0.4l1.2-2.2l-0.2-4.6L282.6,93.1z M269.9,205.1l0.4,2.6l0.5,0.2v-0.2l0.2-0.2
			l1.4,0.2l-0.5-1.1l-1-1.3h-0.2l-0.5-0.4L269.9,205.1z M270.4,116.2l2.3,1.5l1-0.9l-1.2-0.4l-0.9-0.4l-0.7-1.3L270.4,116.2z
			 M272.7,164.6h-1.6l-0.7,0.6l1.8,1.3l0.5-1.5l1.4,0.6l1-1.5L272.7,164.6z M270.9,135.5l0.2,1.1h-0.4l-0.2-1.9L270.9,135.5z
			 M272.5,146.6l-0.4,0.6v0.4h-0.5l-0.5-0.2V147h0.2l0.4-0.6L272.5,146.6z M274.6,83.1v1.1l-3.1-0.7l0.7-1.7L274.6,83.1z
			 M272.7,160.7l-1,0.6l1.2,1.1l0.9-0.9l-0.4-0.9L272.7,160.7L272.7,160.7z M271.6,170.4l0.2,3.7l1-1.7l-0.9-1.9L271.6,170.4
			L271.6,170.4z M272.7,149.8l0.4,0.6l-0.7,1.1v-0.2l-0.4-0.2v-0.6l0.2-0.2v-0.6l0.5-0.4V149.8z M272.5,168.1l-0.2,0.9h0.5l0.4-0.6
			v-0.9L272.5,168.1z M273,140.5l-0.5,0.2l0.7,1.1l0.5,0.2l0.4-0.2v-3.9L273,140.5z M273.2,121.2v0.4l0.5,0.7l0.4-0.7l-0.2-0.4
			H273.2z M283.3,88.9h-0.9l0.2-1.3l-0.2-0.4h-0.2l-0.4,0.4l-0.2,0.9l0.2,0.2l-2.3-1.1v-0.2h-0.7l-0.7-1.5l-0.7,0.4l-0.2-0.2
			l-1.4-0.4h-0.9l-0.5,0.7l1.4,1.3h1l1.4,1.3l0.5-0.7l-0.4,3l0.9-0.7l0.4-2.2l-0.2,2.2l1.2,1.3l0.7-0.2v-0.7L281,90l3-0.7l0.4-0.9
			l0.4-0.2l-0.2,3.5l0.5,0.2l0.5-3.9h0.4l-0.9-3.7L283.3,88.9z M274.9,142v0.4l3,0.2l0.5-0.9v-1.1l-0.9-1.5L274.9,142z M275.3,157.2
			v1.9l0.4,0.4l0.9-0.4l-0.4-2.2l-0.4-0.2L275.3,157.2z M275.5,147.9v0.4h1.4v-1.1L276,147L275.5,147.9z M275.8,205.3l-0.2,0.4
			l0.5,1.5h0.7l0.4-0.6l-0.4-0.9l-0.5-0.4L275.8,205.3L275.8,205.3z M276.5,153.8l1,1.3l0.5-1.1l-0.4-0.9l-0.5-0.2L276.5,153.8z
			 M278.1,128.2l-1.2,2.6l0.9,0.6l1.6-0.6l0.2-2.2l-0.5-1.3L278.1,128.2z M277.4,135.5l-0.2,1.3l0.5,0.9h0.7l1.4-3.2l0.7-0.2
			l-2.8-0.9L277.4,135.5z M277.9,206l-0.5,0.4l0.5,0.9l1.6,0.2v-0.4l-0.2-0.2h-0.5l-0.4-0.9H277.9z M277.7,82.9l0.4,0.7l0.9,0.2
			l0.7,0.2l0.2-0.4l-0.2-0.4l-1.4-0.4L277.7,82.9z M278.3,185.6v1.7l0.7-0.2l0.4-0.4l0.2-0.9l-0.5-0.6L278.3,185.6z M279.1,124.9
			l0.2,0.9l1.9,1.1l0.5-0.9l-0.2-1.3l-1.6-0.4L279.1,124.9z M279.3,141.8l0.2,0.6l0.5,0.2l0.4-0.2V142l-0.7-1.1L279.3,141.8z
			 M279.3,217l0.2,0.4l0.4,0.2l0.4-0.2l-0.4-1.3L279.3,217z M280.7,199.3l-0.5,0.9H280l-0.5,3l0.9-0.6l1.8,0.4l0.2-1.9l-0.2-0.4
			l0.4-0.9l-0.9-0.6L280.7,199.3z M281.6,137.9h-0.4l-0.2,0.2l-0.7-0.4l-0.5,0.6l0.5,0.6l0.9-0.2l0.2,0.2h0.9l0.7-0.9v-0.6l-0.7-0.2
			L281.6,137.9z M280,161.3l-0.2,0.6l0.5,0.9l0.5-0.9l-0.4-0.9L280,161.3z M280.7,156.1l-0.5,0.9l0.2,0.6l0.9,0.2l0.4-1.3l-0.9-1.5
			L280.7,156.1L280.7,156.1z M280.4,152.9v0.4l0.2,0.2l0.2,0.4l0.4-0.4v-0.9L280.4,152.9z M281.4,149.6l0.9,1.1l-1,1.3l1.6-0.4
			l-0.7-3L281.4,149.6z M281.9,141.6l-0.5,3.7l1.8-0.6l0.5-2.2l-0.2-0.2V142l-0.7-0.9L281.9,141.6z M282.3,214.4l-0.2,0.9l0.2,0.2
			l-0.5,0.9v3.9h-0.2v0.4l-0.2,0.2l1.2,0.6l-0.2-3l0.5-1.1l-0.2-0.4l0.5-0.4l-0.2-2.4L282.3,214.4z M282.1,208.4l0.7,0.6l0.4-0.2
			l0.2-0.4l-1-0.4L282.1,208.4z M282.5,111.5l0.9,0.2v-0.4l-0.9-0.2V111.5z M283,189.7l-0.4,1.7l0.7,0.6l-0.2-1.3l0.4-0.6v-0.4H283z
			 M283.3,116.9l-0.2,0.4l0.2,0.4l0.5,0.2l0.4-0.2l-0.2-0.9l-0.4-0.2L283.3,116.9z M284,106.5l-0.7,0.9l1,0.2l0.7-0.7l-0.2-0.7
			L284,106.5z M284.4,96.1v0.4l1.4,0.7l0.7-0.9H286l-0.5,0.2l-0.5-0.7L284.4,96.1z M286.3,80.9l-0.5-0.4l-0.5,0.7l0.4,0.7l0.7-0.2
			h0.2l0.2,0.2h0.7l0.7-0.7v-0.7l-0.7-0.2L286.3,80.9z M286.7,206.4l-0.9,0.2l-0.4,0.6l0.5,0.9l0.7,0.2l0.5-0.4l0.2-0.6l-0.2-0.9
			L286.7,206.4L286.7,206.4z M285.8,154.2l0.2,0.9l0.2,0.2l0.4-0.9l-0.4-0.4L285.8,154.2z M287.5,101.5l1.2,0.4l-0.7-1.1l-0.7-0.7
			l0.4-0.4v-0.4l-0.7-0.2L287.5,101.5z M287.9,83.1l-0.4,0.4l0.4,0.7l0.5,0.2l0.5-0.2l0.2-0.7l-0.2-0.4l-0.4-0.2L287.9,83.1z
			 M287.5,204.9l0.2,0.6l0.4,0.2l0.4-0.2v-0.4l-0.4-0.6L287.5,204.9z M288.6,210.5v0.6l1.8,0.6l0.7-1.1l-1.4,0.4l-0.5-0.6
			L288.6,210.5L288.6,210.5z M289.6,95.2h0.7l0.9,0.4l0.5,0.9l0.2-1.7l-2.5-0.2L289.6,95.2z M290,98.2l0.4,0.4l0.4-0.2v-0.2
			l-0.4-0.7l-0.5-0.2L290,98.2z M290,203.4l0.7,0.6l-0.2,2.4l8,0.9l1.4-1.3h-1.6l-4.4,0.4l-0.7-1.1v-1.1l0.9-0.4l0.2-1.3l-0.5-0.9
			l-3.9-0.2V203.4z M290.9,91.3L291,92l0.2-0.4l0.4-0.7l-0.5-0.2L290.9,91.3z M291.7,198.6l0.4,0.9h1.9l-1.8-1.7L291.7,198.6z
			 M292.4,217l1.6,0.4l-1.8-1.9l0.4-1.1l-0.9-0.2L292.4,217z M292.1,77.4l0.5,0.4l-0.2,1.9l6.8,1.1l1-1.1h-4.9l-0.5-0.7v-1.1
			l0.7-0.4l0.2-0.9l-0.4-0.7l-3.1-0.4L292.1,77.4z M293,88.9l0.2,0.9l0.2,0.2l0.4-0.2l0.2-0.4l-0.4-0.7L293,88.9z M293.1,97.2v1.5
			l0.4,0.2l0.9-1.7l-0.9-1.7L293.1,97.2z M293.3,83.5l0.5,0.7l0.7,0.2l0.4,2.6l0.4,0.4l-0.4,2.8l-0.2,0.4l0.2,0.7l0.4,0.2l2.6-5.4
			l-0.2-1.3h-1.2l0.2,0.7l0.5,0.2v0.2l-1.4-0.7V85l-0.5-0.9l0.2-0.9l0.2-0.2v-0.4L293.3,83.5z M294,100l-0.2,0.2l0.2,0.7l0.7,0.7
			v-0.9l-0.4-0.7H294z M294.5,208.6l0.2,0.9l1.9,0.4l0.7,0.9l0.2-1.9l-2.3-0.6L294.5,208.6z M295.1,212.1l0.2,0.9l0.9,0.4l-0.4-1.3
			L295.1,212.1L295.1,212.1z M296.1,204.5l0.4,0.9l0.5-1.3l-0.5-0.2L296.1,204.5z M296.5,198.4l-0.2,0.9l0.5,0.9l1.2-0.2l0.9-1.1
			l-1.2-0.6L296.5,198.4z M297,74.6l-0.4,0.7v1.3l0.5,0.4l0.7-0.4l1.6-0.2l-1-2.2l0.5-0.4l-2.1-0.4L297,74.6z M298,84.2l1.6,0.9
			l1.2-0.4l-0.2-1.3l-1.2-0.2L298,84.2z M298.7,201.6l-0.2,0.6l0.5,0.6l0.5-0.2v-1.1l-0.4-0.2L298.7,201.6z M299.8,196.2l-0.9,0.4
			l0.7,0.9l0.7,0.2l0.5,3.2l0.5,0.4L301,206l0.5,0.2l2.1-5.9l0.9-0.6l-0.2-1.5h-1.8l0.9,1.1h0.2v0.2l-1.4-0.4v-0.4h-0.4v-0.2
			l-0.5-1.1v-0.9l0.4-0.4l-0.2-0.4L299.8,196.2z M299.3,213.4l0.4,0.2l1-2.2l-1.2-1.9L299.3,213.4z M300,96.9l0.2,1.1h0.4l0.2-0.2
			l0.2-0.9l-0.7-1.3L300,96.9z M323.1,196l-1.9,4.1l-1.8-0.2l-2.3-3l-1,0.6l-0.2,1.9l0.4,0.6l-0.5,2.8l-2.6-4.1l-0.7,0.4l-1.6-0.4
			l-0.5,1.9l-0.5,0.4l-1-0.4l-1,0.4l0.5,1.7h1.9l-0.2,1.7l-1,0.9l-1.4-0.9l0.4,1.5l1,0.4l-0.5,1.5l-1.2,0.2l-0.9-1.7v-1.1l-1.8-1.5
			l-1,2.2l0.2,0.9l-1.8,1.3l-0.7-1.1l-1,0.2l0.7,1.1l1,0.4l1.8-1.1l0.5,0.2l0.4-1.9h0.9l0.4,1.1l0.9,0.4l-1.4,0.4l-1.4,1.9v0.6
			l0.5,0.4l0.9-1.1h0.5l0.2,1.3h0.9l0.4-0.9l0.7,0.6l-1,1.7l-0.4-0.4l-1.8,0.6L303,212l-1.4,0.2l1.6,1.1l-0.2,2.4l1.6,1.3h0.9
			l0.5,0.4l-0.4,0.2v0.4l0.4,0.6l3.1-1.7l-0.5-2.2l1-1.7l0.2-2.2h0.4v-1.1h0.5l0.4-0.4l3.9-0.2l0.5-0.9l-0.7-0.6h-0.9l-0.2-0.9
			l0.5-0.9l0.9,0.4l0.9-0.9V204l2.6-1.3l0.5,0.6h0.7l0.5,0.9l1.2,0.2l0.4,0.9l-1.6,1.5l0.7,0.4l-0.2,1.1l-3.7,1.9l3.1,1.1l0.4,2.6
			l-0.7,1.9l1.2,1.5v0.6l1.2,0.6l0.5-0.9l-1.8-8l1.2-2.2l2.6-1.1l0.5-1.3l-0.7-1.1l-1-0.4l1.4-4.1l-1.9-0.6v-3L323.1,196L323.1,196z
			 M300.1,215.1l0.2,0.9l0.7,0.6v-0.9l-0.4-0.6H300.1z M302.6,75.9l-0.2,0.9l0.4,0.9l0.7,0.2l0.2-0.7l-0.2-0.7l0.2-0.7l-0.2-0.2
			L302.6,75.9z M302.6,83.5l0.5,0.9l0.2-1.9L302.6,83.5z M303.8,201.6l1.9,0.9l1.4-0.6l-0.2-1.5l-1.4-0.2L303.8,201.6z M304.9,97.6
			V98l0.4,0.4h0.7l-0.2-0.9L304.9,97.6L304.9,97.6z M308.5,93.7l-2.8-1.5l0.5,1.5l-0.5,1.9l0.2,0.4h0.5l0.7-1.5l1.8,0.9l1.2-1.9V92
			L308.5,93.7z M307.1,77.4l-0.2,0.7l0.4,0.9l1.2,0.7l1.2-0.9l-1.9-1.7L307.1,77.4z M307,199.1l0.9,0.9l0.2-1.1l-0.2-1.1L307,199.1z
			 M309.1,197.1l4.2-0.2l1.4,3l0.5-0.9v-0.9l0.2-0.2l-0.2-1.3v0.2l-1-0.9l-1,0.2l-2.1-1.3L309.1,197.1z M311,79.2l-0.5,1.1l0.5,0.9
			v0.4l2.5-0.7l0.9,0.7h0.9l0.2-0.2v-0.2l-0.5-0.7l-1.2-0.2l-1.2-1.3L311,79.2z M310.5,83.7L311,85l0.7-1.5L310.5,83.7z
			 M311.9,212.7l-0.7,2.4l0.2,0.6h0.9l0.7-1.9l2.1,0.9l1.4-2.4l-0.5-1.1l-0.4,0.9l-1,0.6l-3.3-1.7L311.9,212.7z M316.6,215.1
			l-0.4,1.1l-1.2,0.6l1,0.9l1.2-0.4l0.5,0.4l0.4-0.4V216l-0.7-1.1L316.6,215.1z M315.5,83.9l-0.4,0.4v0.4l0.5,0.7l1.2-0.7l0.2-0.7
			l-0.5-0.4L315.5,83.9z M315.5,87.2l-0.2,0.4l0.2,0.2l1.2-0.4l-0.7-0.4L315.5,87.2z M315.7,79.4l0.9-0.7l0.7-1.7v-1.1l-0.7-0.2
			L315.7,79.4z M318.3,207.1l-1.4-0.4l-0.5,2.2l0.2,0.4l0.7-0.2l3.3-3.5l-1.8-0.2L318.3,207.1z M317.6,212.7v0.4l0.5,0.6l0.7-0.2
			v-0.9l-0.9-0.2L317.6,212.7z M319.7,81.8l-0.2,0.9l0.7-0.2l0.4-0.7l-0.4-0.4L319.7,81.8z M319.6,196l0.9,1.7l0.7-1.9l-1-1.5
			L319.6,196z M319.7,85v0.4l0.5,0.4h0.9l-0.4-1.1l-0.9-0.2L319.7,85z M320.6,91.3l-0.5,0.9l0.2,0.9l1-0.4l0.7-1.1l-0.7-0.4
			L320.6,91.3z M324.1,209.2l-0.4,1.1l0.5,1.1l0.7,0.2l0.4-0.9l-0.4-0.9l0.2-0.6l-0.2-0.4L324.1,209.2z M324.8,217.3l0.4,1.3
			l0.4,0.2l0.4-0.2l0.2-1.3l-0.9-1.3L324.8,217.3z M326.6,200.6l-1,1.5v1.7l0.7,0.4l0.9-0.6l0.9-0.4l0.5-0.9l-1-1.7L326.6,200.6
			L326.6,200.6z M326.6,207.7l2.1-0.4v0.2l0.2,0.2v1.1l-2.5,2.2l-0.9,2.4l1.4,0.4l1-0.4l-1-1.7l3-3l1-2.2l-3.3-0.2L326.6,207.7z
			 M325.7,198.8l0.2,0.4h0.7l0.7-0.4l-0.7-0.6L325.7,198.8z M326.6,81.6l-0.2,0.4l0.2,0.4h0.4l0.4-0.4v-0.4l-0.4-0.2L326.6,81.6z
			 M328,75.9l0.4,0.4h0.4v-0.7l-0.5-0.2L328,75.9z M328,197.3l0.2,0.6l0.5,0.4l1.6-0.6l0.2-0.6l-0.9-0.6L328,197.3z M328.5,204.5
			l0.2,0.9l1.2-0.4l0.9-1.3l-0.9-0.6L328.5,204.5z M329,81.8l-0.2,0.4l0.5,0.4h0.4l0.2-0.4l-0.5-0.4H329z M329.5,210.8l-0.2,0.9
			l1.9,1.7l1.4-1.1l-2.3-1.9L329.5,210.8z M330.6,215.5l1,0.6l2.8-0.6l-0.4-1.1l-0.5-0.2L330.6,215.5z M330.9,200.8l1.8,1.1l0.2-0.2
			v-0.4l-0.9-0.6L330.9,200.8z M332.2,203.6L332,204l0.2,0.4l0.4,0.2l0.5-0.4l-0.2-0.6l-0.4-0.2L332.2,203.6z M332.2,208.2l0.9,1.1
			l0.9-0.2l-0.5-1.1l-0.9-0.2L332.2,208.2z M336.5,205.8l-0.4,1.1l0.9-0.2l0.5-0.9l-0.4-0.4L336.5,205.8z M336.4,209.9l0.2,0.4
			l0.7,0.2l0.4-0.4l-0.2-0.4l-0.9-0.2L336.4,209.9z M336.7,213.4l-0.4,1.1l0.5,2.2l3.1-1.5l0.9,1.1h1l0.4-0.6l-0.9-0.9l-1.4-0.2
			l-1.4-1.5L336.7,213.4z"/>
		<path d="M525.5,177.8l-0.2,3.5l-0.3,5.6l-0.5,3.2l-1.2,4.6l-1,3l-1.8,4.1l-1.6,2.8l-2.8,4.1l-1.9,2.4l-4.4,3.9l-2.3,1.7l-2.5,1.5
			l-2.6,1.5l-2.8,1.1L497,222l-7.9,1.9l-4,0.6l-2.8,0.2l-4.2,0.4h-2.8l-9.6,0.4h-15.2l-9.8-0.6h-2.8l-9.6,0.4h-2.6l-6.6-0.2
			l-2.8-0.4l-2.5-0.4l-1.4-0.6l-0.9-1.1l-0.4-2.4l-0.2-3l0.2-3.2v-3.5l0.2-1.7v-3.7l0.5-11.5l-0.2-3.5l-0.2-5.4l-0.2-3.2l-0.2-3
			v-3.2l0.2-5.4v-9.5l0.7-11.5v-3.5l-0.4-11.5v-3.5l-0.2-11.5l0.2-3.5l0.5-11.5l0.2-3.5l-0.7-11.5l-0.2-3.5l-0.5-6.5v-5l0.7-2.8
			l1.8-1.3l2.5-0.4l2.8-0.2l19.1-0.7l15.2,1.1l9.5-0.4h2.8l9.6,0.2h2.8l10.1,0.9l3,0.4l3,0.7l6.6,2.6l2.6,1.5l3.3,2.2l2.3,1.9l3,3
			l1.8,2.4l2.5,3.7l1.2,2.8l1.9,4.1l1,3l0.9,3.2l0.5,3.5l0.7,5.6l0.2,3.5l-0.2,3.7l-0.5,3.7l-1,5l-1,3l-1.9,4.1l-1.8,2.4l-2.8,3.2
			l-1.4,1.7l-0.5,1.5l0.5,1.7l1.6,2.2l2.1,2.4l2.1,2.8l2.6,4.6l1.6,3.2l1.2,3.5l0.7,1.7l0.9,3.5l0.7,3.7l0.3,3.7L525.5,177.8z
			 M416.7,210.1l-0.2,0.9l0.4,0.4l0.4-0.2l0.2-0.9l-0.2-0.2L416.7,210.1L416.7,210.1z M417.4,207.3v0.4l0.4,0.2l0.4-0.2l0.4-0.9
			l-0.2-0.2h-0.5L417.4,207.3z M420.5,162.6l-0.9,7.4l1.2-0.9l1.9,0.9l0.4-0.2l0.2-0.9l-1.6-0.9l0.9-2.8l-1.9-4.6l-1.4-0.4l0.9,1.9
			L420.5,162.6z M423.7,204h-1.6l-0.7-2.2l0.2-0.2l-0.5-2.2v0.2l-0.2,0.2h-0.2l-0.4-0.6h-0.2v1.9l0.4,0.6v2.2l1,0.4l0.7-0.2l0.9,0.6
			h1.6v-1.3H424L423.7,204z M423.3,196.2l0.2-0.2l-2.3-0.4l1,0.4L423.3,196.2z M422.5,206.9l-0.4-0.4l0.2,2.8l0.5,0.2l0.2-0.6
			l-0.4-0.9L422.5,206.9z M423.7,192.1l-0.7-0.9l-0.2,1.3l0.4,0.2L423.7,192.1z M425.4,199.9v0.4l1.2,0.4l-0.7-0.6h-0.4L425.4,199.9
			z M431.4,163.9h-0.5l-0.9-4.8l-0.7-0.9l-0.4-2.8l-3.3-0.9l4,5.6v2.8l-0.5,0.6l-0.7,3.2l-1.6,1.3l0.5,1.1l1.2,0.6l1.2-2.2l-0.7-0.9
			l0.4-1.3l1.9,0.4l1.2-1.5l-0.2-0.9l-0.7-0.2L431.4,163.9z M429.3,186.1l1-3l-0.2-0.6l2.1-2.6l0.2-0.9l-0.7-0.2l-3.9,3l-0.4-0.2
			l-0.5,0.2l-0.5,1.3l1.2,1.1l-0.2-1.5l1,1.7l-0.2,0.2v1.1l-0.5,0.6h-0.4v0.4l0.4,0.4l2.1,0.4l-0.2-0.9L429.3,186.1z M431.6,143.8
			l-0.5,0.6h-0.5l-0.2,0.2l-1.2-0.4l-0.4,0.6l1,0.6l2.8-0.2l0.5-0.9l-0.4-0.6H431.6z M429.5,212.1l0.5,0.6l1.9,0.4v-1.1l-1,0.4
			L429.5,212.1z M434.5,193.9l0.2-0.4l-1.6-1.1l-1.6,1.3l1.6,0.4L434.5,193.9z M431.9,208.6l0.7,0.4v-0.9l0.4-0.6l0.7-0.2l-1.6-1.5
			L431.9,208.6z M436.3,147.7l-0.7-1.3l-0.7-0.2l-0.9,0.4v0.6l1.8,0.9L436.3,147.7z M434.7,210.1l-0.2,0.6l0.7,0.6l0.4-0.4v-0.4
			l-0.4-0.4L434.7,210.1L434.7,210.1z M438.6,139.2h-0.9l-0.9,1.5v1.7l0.7,0.2l2.5-1.1l-0.4-0.9L438.6,139.2z M438.6,179.1l-0.4,1.1
			l2.3-0.6l0.2-1.9l-1.6,1.9L438.6,179.1z M441.2,137.1l-2.5-0.2v0.9l0.4,0.6l1.2-0.2L441.2,137.1z M441.5,155.3l0.4,0.6l0.2-0.2
			l-0.2-1.1h-0.4V155.3z M442.9,152.4l0.2,0.9l0.4,0.2l0.2-0.2v-1.1h-0.4L442.9,152.4z M444.5,141.2l0.2-0.4l-0.2-0.4l-0.9,0.4
			l-0.2,1.1l0.5,0.9l0.7,0.2l0.2-0.9L444.5,141.2z M445.9,118.6l0.2,1.7l0.2,3.5l0.4,2.4l0.7,1.3l1.4,0.9l2.1,0.2h7l3-0.2h3l4,0.4
			l6,0.4h3.9l2.3-0.6l2.1-1.3l1.8-1.5l1.2-1.7l1-2.2l0.5-3v-3.7l-0.5-2.8l-1.6-2.8l-2.5-2.2l-1-0.4l-2.6-0.9l-1.2-0.2l-3-0.4h-1.6
			l-6.8-1.1H463l-4.4,0.2l-2.8,0.2h-3.7l-1.8,0.4l-1.6,0.2l-1,0.7l-0.7,1.1l-0.5,2.8l-0.5,5.2L445.9,118.6z M486.2,188.4l1.4-1.5
			l0.7-1.3l1.2-3.2l0.5-3.5l0.2-1.3l-0.2-3l-0.5-3l-1.4-3l-1-1.5l-2.3-2.8l-2.8-1.9l-2.6-1.1l-1.2-0.4l-2.5-0.2l-7.9,0.4l-3,0.2
			h-10.3l-2.6,0.2l-3.1,0.6l-1.6,0.6l-0.5,1.1l-0.2,2.6v3.7l0.2,3.5v4.8l-0.4,3.7v4.3l0.4,2.4l0.7,1.3l1.2,0.9l2.3,0.4l24.7-0.6
			l6-0.4l2.8-0.6L486.2,188.4z M448,146.4l1.9,0.6l1.2-0.9l-0.4-1.5h-1.4L448,146.4z M453.8,145.7l0.2-1.1l-0.4-1.1l-0.7,1.3
			L453.8,145.7z M453.8,210.8v0.4l0.2,0.2l0.7-0.2v-0.4l-0.2-0.2H454L453.8,210.8z M456.6,154.4l0.2,0.6l0.7,0.6l1.4-1.5l-0.7-0.6
			l-1,0.4L456.6,154.4z M458.5,141l-0.7,0.4l-0.2,0.9l0.4,0.9l1.4,0.6l1.4-1.1l-1.6-1.3L458.5,141z M465.2,144l-1.4-1.5l-1.6,0.6
			l-0.4,1.1l0.5,1.1v0.4l3-1.3l0.9,0.9h1l0.2-0.6l-0.7-0.9h-1L465.2,144z M463.4,147.9l-1.4,0.2l0.9,1.5L463.4,147.9z M469,138.4
			l-0.9-0.2l-0.4,0.6l-0.2,3.7l1-0.9l0.5-1.9L469,138.4z M468,151.8l0.4,0.2l1.2-0.4l-0.7-0.4l-0.7,0.4L468,151.8z M473,144
			l-0.5,0.6l-0.2,1.1l1-1.1L473,144z M473,147.9l-0.4,0.4l0.9,1.1l0.9-0.4l-0.5-0.9L473,147.9z M473.9,156.6l0.2,0.9l1-0.4l0.9-1.3
			l-0.9-0.6l-0.9,0.4L473.9,156.6z M480.2,139.2l-0.2,0.4l0.4,0.4h0.4l0.4-0.4l-0.2-0.6h-0.4L480.2,139.2z M481.4,132.1l-0.2,0.4
			l0.2,0.2l0.7,0.2v-0.9l-0.4-0.2L481.4,132.1z M483,139l0.2,0.9h0.9l0.2-0.4l-0.9-0.6L483,139z M489,135.1l-0.7,1.3v0.2l-0.7,0.9
			l-0.5-0.4l-0.9,0.2v0.4l0.7,0.9l0.2-0.2h0.5l0.2-0.2h0.2l1.4,1.1l1-1.3l-0.2-1.1L489,135.1z M488.8,94.1l0.2-0.9h-0.4l-0.4,0.7
			l0.2,0.4h0.2L488.8,94.1z M488.8,213.1l0.7,0.4l0.5-0.2l0.2-0.6l-0.5-0.4L488.8,213.1z M491.8,95l0.4-1.3l-0.7-0.4l-1,2.6l0.7-0.2
			L491.8,95z M491.9,135.8l1-2.8h-1l-1,2.2l0.5,0.9l0.4-0.2L491.9,135.8L491.9,135.8z M492.1,140.7l-0.7-0.2l-0.2,0.2h-0.2v0.4
			l0.4,0.4h0.4l0.4-0.4V140.7z M492.8,85.9l0.4-0.4l-0.7-0.7l0.2-0.9l-0.5-0.4l-0.5,0.2l0.2,0.9h-0.2l0.7,0.7L492.8,85.9z
			 M492.6,159.2v-0.6l-0.2-0.2h-0.4l-0.5,1.5l0.4,0.2l0.4-0.2L492.6,159.2z M492.1,210.8l-0.4,0.6l0.2,0.4l3.1-0.4h-0.4l-0.5-0.4
			L492.1,210.8z M494.2,144.4l-0.9-0.4v-0.6l-0.7,0.6v1.1l0.2,0.2h0.4l0.2-0.4l1.4,0.9l-0.5-1.1L494.2,144.4L494.2,144.4z
			 M519.4,173.7l-0.9,0.2v-0.2l-1.2-1.1l-0.2-0.6l0.7-0.6l1-6.7l-1.6-0.2l-0.5,4.3l-0.9,0.9l-0.7,2.8l-3.7,0.4l-1.2-1.7l-1.6,0.9
			v-0.6h-2.6l-1.6,1.3l-0.2,1.1l-0.2,0.2l0.7,1.1l-3.5,1.5l-1.4-0.6l0.2-1.7h2.5l-0.2-0.6l-2.1-1.9h-0.7l-0.9-0.9h-1l0.2-0.2v-0.6
			h0.9l2.6-2.6l5.2,1.1v-3.7l-0.7-1.3l-1-0.4l-1,0.9l-0.2,1.5l0.7,0.2l0.2,1.1l-1,0.2l-0.9-0.6l-6.3,3.7v0.6l-1.4-0.2v0.2l-0.2,0.2
			l1.6,0.2l0.2,0.2l0.2,3.7l-2.3,1.5l-0.2,0.9h-1l-0.2,0.2l0.5,0.4v0.2l1.2,0.2v0.2h0.2v0.2l-0.2,0.2v0.4l-0.7,0.2v0.2l-0.2,0.2
			l2.5-0.4v-0.2l0.5-0.6l3.5,1.7l-0.2-1.3l-1.2-1.3h-0.2l-0.9-0.9l-0.2-1.1l3.9,2.4l1.4,3.5l1.6-0.2l0.2,0.2l2.3,0.6l2.3-4.1
			l-1.6-1.5l-0.7-2.6l3.5,1.9l0.7-0.6v-0.2h1.2l0.9-0.9h2.1l1.9,1.5l0.2,0.9l0.5,0.6l-0.2,3.2l-1,1.3l-0.7-1.1l-0.9-0.2l-0.7,1.3
			l0.5,1.1l1,0.6l0.3,0.9l-1.9,2.8l0.3,0.2l0.5,1.1l0.9,0.2l0.3,1.3h0.9l0.3-1.1l-0.2-0.9l2.1-6.1l-0.2-0.6L519.4,173.7z M494,198
			l0.2-0.6l-0.7-0.9l-0.4,0.2v1.5L494,198z M494,128.8h1.2l-1.8-1.5l-0.2,0.2v0.4L494,128.8z M496.1,136.2v-0.6l-0.4-0.6l-0.9-0.4
			l-0.2,0.2l-1,0.2l-0.4,1.7l2.1,0.2l0.2-0.2h0.4v-0.2L496.1,136.2z M495.8,139.4l-0.2-0.2h-0.9l-0.5,0.6v0.2l0.9,0.4l0.7-0.4V139.4
			z M495.3,89.4v-0.7l-0.5-0.4l-0.4,0.2v0.4l0.4,0.7L495.3,89.4z M501.2,128.6l0.9,2.6h-0.2l0.2,1.1l-0.2,0.2l-0.4,1.7l0.5,1.1h1
			l0.5-0.4l0.9,0.4l1.4,3l0.7-1.1v-0.2l1-0.6l1.9,1.5v-0.2l0.2-0.2l-1.4-1.9l-0.4-2.4l1-2.2l3.3-2.2l0.2-1.5h-0.2l-0.7-0.9l-0.7-0.2
			l-0.7,0.4l-1.9-1.5l0.4-1.1l3.5-1.5l0.5-3.7l-1.4-0.9l-0.4-1.1l0.4-1.3l-0.2-0.2l-0.2-1.3l-1.4,0.9l-0.2,2.6l-1.2-0.4l-0.7-1.5
			l0.7-1.7l-1.2,0.4l-0.4,1.5l-1.2-0.9l-0.2-1.5h0.4l1.4-2.2l1.2-0.2l0.4-1.1l-0.9-0.2l-0.9,0.4l-1.8-1.9V108h-0.2l-0.2-0.7l0.7-0.9
			l-0.5-1.3l-0.5,1.1v2.2l1,1.1l-0.2,0.4l0.7,0.4l0.9-0.2l0.2,1.1l-1,0.4l-0.2,1.3l-0.4-1.5l-2.5-1.5v0.7l0.9,1.1v0.2l-1,0.4v0.4
			l0.2,0.2v0.2l0.5,0.4v0.2h-0.2l-0.4,0.4h-0.2l-1.2-1.1l0.4-0.4l-0.7-1.5l0.7-2.2l-0.4-1.1l-0.5,1.7l-1.9,0.2l-0.9,1.3v0.9
			l-0.4,0.7l-0.4-0.4l-0.5,0.7v0.4l1.4,1.9l1-0.4l3.7,1.5v0.2l0.7,0.2l0.2,0.2v0.4l0.4,0.4l-0.2,0.2l-0.5,3.9l0.7,1.1l0.5-0.7
			l0.2-1.3l0.9,0.2l0.4,0.7l-0.4,1.3l0.4,1.1l1.2,0.4l-0.2,3.7l-0.4,0.2l-0.5,1.1l-0.9,0.2l-0.7,1.1v0.4l-0.9-0.2l-0.2-0.2l-0.2-2.2
			l-0.2,0.4h-0.2l-0.2,0.2l-0.9-0.9v-4.3l-1.4,2.4l-0.5,0.2l-3.1-2.4l-1.4,0.4l-0.5-0.4l-0.4,0.4h-0.4l-0.2,0.2l0.4,0.9L501.2,128.6
			z M495.6,103.4l0.7-2.4h0.9l-0.4-1.1l-1.6,2.2l0.2,0.2L495.6,103.4z M505.6,187.1l-0.9,0.9l-1-0.9l0.9-2.8l-0.7-0.9v-0.2l-0.9-0.9
			l-1,0.2l-0.2,0.6l0.5,0.6v0.9l-4.2-0.4l-0.7,0.6l-2.1-0.4v3.7l3.1-2.8l6,3.7l0.5,2.6l1-0.2l1.2-1.5l-0.9-1.7L505.6,187.1z
			 M497,198.4l-0.7-0.4v0.2l-0.7,0.2v0.4l-0.2,0.2v0.9h1.6l0.2-0.4L497,198.4z M497.7,139.9l0.9-1.7h0.4l1.2-1.3l-0.4-1.9l-0.9,2.2
			h-0.5l-0.7-0.6l0.2-3.5l-1.2-2.2l-0.9,0.6l-0.2,1.1l1.6,0.4L497.7,139.9z M495.6,204v0.6l0.5,0.6l0.2-1.1l-0.4-0.2L495.6,204
			L495.6,204z M496.7,122.5v0.2l1,0.7l0.2-0.2l0.9-0.2v-0.7l-0.7-0.7l-0.4-1.3L497,121v1.1L496.7,122.5z M497.7,82v0.2l0.7,0.2
			l0.5-0.4l-0.2-1.1l-1-0.7l-0.9,0.2h0.2v0.4L497.7,82z M497.9,155.7l-0.7-0.2l-0.4,0.2v0.6h1L497.9,155.7L497.9,155.7z M501,189.1
			l-0.7-1.1l-2.1-0.4l-1.2,1.7l0.4,1.5l2.1-0.4L501,189.1z M497,208.8l0.2,0.6h0.5l0.4-0.9l-0.2-0.4h-0.7L497,208.8z M497.7,97.4
			h1.2l-1-0.9v-0.9l-0.4-0.4l-0.4,0.4l0.2,0.9L497.7,97.4z M497.7,90.2l-0.2,0.2l-0.2,0.9l0.9,1.1l0.9-1.1l-0.4-0.7L497.7,90.2z
			 M498.2,142.5l-0.4-0.2l-0.5,0.2v0.6l0.4,0.4h0.2l0.4-0.6L498.2,142.5L498.2,142.5z M498.8,193.4l-0.2-0.2l-0.2-1.1h-0.4l-0.7,3
			l0.4,0.6l1,0.2l0.4-0.6l-0.2-0.9L498.8,193.4z M499.1,107.8v-0.2l-0.2-0.2l-0.9,1.3l0.7-0.2l0.5-0.7L499.1,107.8L499.1,107.8z
			 M498.2,162.9l0.4,0.6h0.7l0.5-1.1l-0.9-1.3l-0.7,0.2l-0.2,1.1l0.2,0.2V162.9z M499.6,132.9h0.4l0.4-1.1l-0.7-1.1l-1.2,0.2
			l-0.2,0.4l0.4,0.6l0.7,0.2L499.6,132.9z M498.4,198.8l-0.2,7.6h1.6v-0.2l0.7-0.9l-0.4-1.3L498.4,198.8z M500.9,144l-2.3,0.6
			l0.4,0.6l1-0.2v-0.2L500.9,144z M499.1,146.2l-0.4,0.4l0.2,1.1h0.4l0.5-0.9l-0.2-0.6L499.1,146.2L499.1,146.2z M500,102.6
			l-0.2-0.9l-0.7,1.3l0.2,0.2h0.4L500,102.6z M501.2,121.9l-0.2-1.1l1.9-3l-1.4,0.7l-1.9-1.1l-0.4,0.2l-0.2,0.7l1.4,0.9l-1,1.3v0.7
			l1.4,1.7v0.2l1.4,0.7l-0.4-0.9L501.2,121.9z M500.3,124.1l-0.4-0.2l-0.5,0.2l-0.2,0.9l0.7,0.2l0.4-0.7V124.1z M500,138.6l-0.7,1.3
			l0.2,1.7l1-0.4l0.4-1.1l-0.2-1.1L500,138.6z M501,192.3l-1.6,1.7l0.2,1.9l1,0.4l2.6-3.2L501,192.3z M499.8,182.8l0.5-0.2l0.2-1.1
			l-0.9,0.6v0.2l0.2,0.2L499.8,182.8L499.8,182.8z M500.5,91.8l0.4-0.7v-0.4h-0.5l-0.4,0.4l0.4,0.7H500.5z M502.3,106.7l0.9-1.7
			l-3,1.1v0.4l0.4,0.2H502.3z M501.9,198.2h1l0.2-0.2l0.7-0.2l-1.8-0.6l-1.4,3.5l1.4-0.4L501.9,198.2z M502.1,153.5l-0.4,1.1
			l0.2,1.3l1.6-2.4l-1.9-2.8l-0.5,0.2l0.2,1.5L502.1,153.5z M504.5,103.4l1.4,1.1l-2.6-6.7l0.4-1.1l0.7-0.7l0.9,0.9l0.9-0.7l0.4-0.9
			l-2.3-4.6L503,92V93l-1.8,1.3L504.5,103.4z M501.7,209.2l-0.5,0.9v0.4l0.7,1.1h1.4l-0.2-1.7L501.7,209.2z M503.7,140.5l0.7-1.3
			l-0.2-1.9l-1.2-1.1l-0.7,0.6l-0.9,3.5h0.5L503.7,140.5z M505.9,203.4l0.2-3l-4.7,6.5l2.3-1.1l0.2-0.6l1.8-1.5L505.9,203.4z
			 M501.6,103.4l1.6-0.7l-0.2-0.2l-0.4-2.4l-0.4-0.2l-0.2-0.4l-0.5,0.7l0.4,1.1l-0.4,1.9L501.6,103.4L501.6,103.4z M502.4,160.2
			l6.1-3.5l0.2-1.5l-0.5-0.6l-4,3l-0.5,1.3l-0.9-0.6l-1,0.2l0.5,1.5L502.4,160.2z M503.7,171.7v-0.2l0.2-0.2l-0.5-0.6v-0.2l-1.4,0.2
			v0.6l0.4,0.6L503.7,171.7z M503.7,124.1h-0.4l-0.2,0.4l1.2,5.4l0.9-1.5V128l-1-1.3l1-1.3L503.7,124.1z M504,143.1l-0.9,2.2
			l0.2,0.6l1-0.4l1-2.4l-0.5-0.4l-0.5,0.2L504,143.1z M504.7,207.7l0.5,1.3l1-0.2l0.4-0.9l-1.2-1.3L504.7,207.7z M504.9,141.4h0.2
			l0.9-0.6l0.2-0.9l-0.2-0.4h-0.2L504.9,141.4z M504.9,193l0.4,0.9h0.9l0.5-1.1l-0.9-0.2l-0.4,0.2L504.9,193z M505.4,99.8l-0.2,0.4
			h0.4l0.2,0.2l0.7-0.2l-0.4-0.7h-0.4L505.4,99.8z M505.9,149.2l0.7-0.6v-0.6l-0.4-0.2l-0.7,0.2v0.9L505.9,149.2z M511.4,108.2
			l0.2,0.7l0.5,0.4l1.2-0.4l-0.3-2.6L512,108v-1.9l0.2-0.2v-0.7h0.3V105l0.5-0.9l1,0.2l0.3-0.2v-0.9l-1.8-2.8l-0.5,1.1l0.3,1.3
			l-1.1,1.3l-1.4,0.2l-0.2,0.9l-3.7,0.9v0.4L511.4,108.2z M508.7,193.4l1,0.2l0.7-0.9l-0.2-1.1h-0.7l-0.7-0.9l0.2-1.5l-1.9-3.2
			l-0.5,0.6l1.6,2.6L508.7,193.4z M507.3,93.5l0.7,0.9l0.4-1.3l-0.4-1.7l-0.9-0.2l-0.4,1.1l0.5,1.1L507.3,93.5L507.3,93.5z
			 M508.7,196.9l-0.2-0.6l-0.5,0.2l-0.5,1.3l0.2,0.4l0.5,0.2l0.2-0.6L508.7,196.9z M508.4,103l0.9-0.2v-0.7l-0.4-0.4h-0.5l-0.4,0.9
			L508.4,103z M508.6,200.8l-0.5,1.5l0.2,0.6h0.4l1.2-3l-0.7,0.4L508.6,200.8z M510.5,160.9v-0.4l-0.5-0.9l-1-0.2l-0.2,1.1l0.5,0.6
			L510.5,160.9z M510,100.2l1.2,0.7l-0.9-3.7l-0.9,0.4l-0.2,0.9l0.2,0.7L510,100.2z M509.3,186.9v0.6l0.9,0.4l1.8-0.4l0.7,0.9
			l0.7-0.6l-0.2-1.3h-1l-0.4-0.4l-1.2-0.2l-0.7,0.6h-0.2L509.3,186.9z M509.8,111.5l0.7,1.9l1.2-0.4v-2.2l-1.4-2.2L509.8,111.5z
			 M512.9,197.5l-1.6-0.9l-1.6,0.2l1.4,4.3l0.9-0.9h0.2l1.4-2.4v-2.2L512.9,197.5z M510.7,183l0.7-0.2l0.4-0.9l-0.2-0.6l-1.2-0.2
			l-0.4,0.6v0.4l0.2,0.2v0.2L510.7,183z M512.9,134.4l-1.1-1.7l-1.8,0.4l0.9,1.9L512.9,134.4z M515,162.2l-1.8-2.4l-0.7,0.9l0.3,1.5
			l-0.3,0.2l-0.2,0.4l-0.7,0.2l-1.4,1.9l3.5,2.4l-0.2,1.1l0.7,0.4l0.5-0.4l-0.5-3.9l0.7-0.9L515,162.2L515,162.2z M513.6,123
			l-2.6,1.5l0.4,0.9l0.9,0.4v0.2h1l0.9-1.5V123l1.6-3.2l-1.6-3.2L513.6,123z M514.5,190.6l-1.2-1.3l-0.5,1.1h-0.2l-0.9,0.9l-0.4,1.5
			l0.2,0.2l0.2,1.3l1.1-0.2l1.4,0.6l0.3,1.1l0.7-0.2v-1.9L514.5,190.6z M512.1,114.3l0.9,0.4l0.9-0.2l-1-1.3L512.1,114.3z"/>
		<path d="M597.1,69l10.7-0.2h2.8l10.5,0.9h2.8l10.5-0.9h2.8l23.8,0.4l3-0.2l6-0.7h4.4l2.5,0.7l1,1.1l0.3,1.5l0.3,2.8v5.8l-0.3,5.4
			v3.7l0.2,5.4l0.2,3.2l-0.2,3.2l-0.3,2.6l-0.7,1.5l-0.9,0.9l-2.1,0.4h-1.4l-2.8,0.2l-16.5-0.4h-2.8l-8.9,0.4h-2.8l-9.1-0.4
			l-7.9-0.7h-2.6l-1.4,0.2l-1.8,0.4l-0.9,1.1l-0.2,1.3l-0.3,2.4l-0.3,5.2v3.5l0.2,3.7l0.2,2.4l0.3,1.5l0.7,1.1l1.9,0.6l5.6,0.4
			l5.6-0.4h16.6l19.6-1.3l5.4,0.4l1.9,0.4l1,1.1l0.5,1.3l0.2,2.4l0.3,3.7l0.2,3.7v7.1l0.3,5l-0.3,6.5l-0.3,2.6l-0.7,1.5l-1.2,1.1
			l-1.8,0.4h-3.5l-7.9-1.1l-2.8-0.2l-14,1.1l-11.2-0.4h-2.8l-7-0.6l-3,0.2l-2.1,0.2l-0.9,0.6l-0.5,1.5l-0.2,3.2l-0.5,5.4l-0.2,3.5
			v4.8l0.2,2.2l0.5,1.5l0.7,0.9l1.9,0.2l9.6,0.4h2.8l9.5-0.9l12.4,0.9h2.8l12.4-0.9h2.6l2.6,0.2l6.3,0.9l1,0.6l0.7,1.3l0.2,2.4
			l0.5,11.9l-0.2,3.5l-0.7,11.7l-0.2,2.2l-0.7,1.5l-0.9,0.9l-22.9,0.9h-2.8l-9.3-0.9l-2.8,0.2l-9.1,0.9l-2.8,0.2h-12.1l-9.1-0.9
			h-2.8l-15,1.1l-6-0.4l-2.1-0.4l-1.2-1.1l-0.5-1.5l-0.3-2.4l-0.3-5l-0.2-3.5l0.2-3.2v-3.2l0.7-11.5v-3.5l0.2-11.5l-0.2-3.5
			l-0.5-11.5l-0.2-3.5l0.3-11.7v-18.4l0.7-11.5l-0.2-3.5l-0.5-11.5l-0.2-3.5v-5.2l0.3-6.5v-3.2l0.5-11.3l0.2-3l0.5-1.7l0.9-0.9
			l1.4-0.2l2.3-0.4L597.1,69z M586.8,210.5l-0.7-0.4l-0.3,0.4v0.9l0.5,0.9l2.1-1.5l-0.7-0.6L586.8,210.5z M591.3,82.6l-5.2,1.3
			l1.2,0.4l1.4,1.7l1.4-0.4l-1.9-1.1v-0.4l5.1-2.2l-1.9-1.5L591.3,82.6L591.3,82.6z M596.8,96.3l-0.5,0.7l0.2,0.2v0.4l-1.6,1.3
			l2.3,3.9h-0.2v0.2h-0.2l-0.5,0.4l-0.2-0.2h-0.2l-3.2-2.4l-4.7,3.2v0.2h-0.2l-0.7,0.9v3l0.2,0.2l0.3-0.2V108l-0.2-0.2l3.7-1.1v1.7
			h-0.9l-1.8,2.6l1.6,5.2h0.5v-0.7l0.7-1.3l1,3.9l-2.3,3.2l1.6,0.4l0.5,0.9h2.5l0.3,0.7l0.5,0.2l0.2-0.7l-0.2-0.4l-2.1-0.7l-0.9-3
			l2.5,0.4l1.8,2.2l0.3-2.2l-5.4-5.4l0.3-0.9l0.9-0.7l1.2,0.2v0.2l4.2-2.6l-0.2-1.5l-0.7-0.7l-1.6,1.1l-0.7-0.2l-0.2-1.1l0.5-0.7
			l0.2-1.1l2.5-0.4l3.2-7.2l-0.5-1.1l-2.3,0.7l-0.3,0.4l-1.2-2.2L596.8,96.3L596.8,96.3z M587.8,80.7l0.9,0.9h1l0.2-0.2v-0.4
			l-0.9-0.7L587.8,80.7z M588.5,203.4l-0.2,0.2l0.2,0.4h0.7l0.2-0.2l-0.5-0.4H588.5z M588.9,127.3l0.2,0.2l-0.5,1.7l1,1.7l0.2-1.7
			l-0.2-4.1L588.9,127.3z M588.7,137.1l0.5,0.4l0.3-0.4l-0.2-0.6l-0.9-0.2L588.7,137.1z M591.2,90l-1.9,0.4l-0.2,1.1l0.5,1.5l1,0.7
			l0.2-0.4l0.3-0.2l0.2-3L591.2,90L591.2,90z M589.1,139.2l0.3,0.6h1l-0.5-0.9l-0.9-0.4L589.1,139.2L589.1,139.2z M591.3,147.2
			l-2.1,1.9v0.6l0.5,0.2l0.3-0.2l3-3.7l-1.6-1.5L591.3,147.2z M589.2,213.4l0.5,0.6l0.9-0.2l-1.4-1.1V213.4z M596.6,124.1l0.7,0.4
			l-1.2,2.8l-0.5,0.2l0.7,1.3l2.3-0.2l0.3,1.3l0.9,0.6l-2.5,3.2l-1-0.6l-2.8,2.6l1.6,1.3l-1.8,2.4l0.3,1.5l-0.5,1.1l0.3,1.1l1.2-0.6
			l0.7,0.4l0.3,1.1l-1,3.2l1,0.6v1.5l-1.4,0.2l-0.7,1.1l0.2,0.9l2.5,1.5l0.3,1.1l0.9,0.6v2.6l-0.7,0.6h-1.6l-2.3-1.9l-1.9,4.1
			l-1.4,0.4l0.7,0.6l0.9-0.6l-0.3,2.8l0.9,1.3l0.7-0.2l0.3-0.6l-0.2-0.6H592l1.2-4.1h0.7l0.5,0.4h0.5l0.7,1.9l0.3-1.9l2.1-1.3
			l0.2-3.7l0.7-0.6v-1.1l0.5-0.6l0.3-2.6l-2.3-6.5l-1.2,0.2l-0.5-1.5l0.5-1.5l-0.5-0.9l2.6-2.4l0.2-0.9l1.2,0.2l0.3,0.6h0.7l0.2-0.2
			l-0.3-1.1l-2.1-0.6v-1.9l1.2-0.2l1.6,0.9l0.5-1.1l-1.2-0.6l-0.7-1.7l1.2-0.6l0.5-1.5l1.6-1.3l-0.2-3l-0.5-0.2l-0.9-1.3l-0.7,0.2
			l-0.2,0.7l0.9,1.5l-0.2,1.1l-0.2,0.2h-0.2l-0.7-0.9l-2.1-0.2l-0.9-1.3v-2.8L596.6,124.1z M597.3,92l-0.9-0.2l-0.2-0.4h-0.3
			l-0.5,0.4v0.7l-0.5,0.9v0.4l-1.2,1.3h-0.9l-0.5,0.4l-2.3,3v0.2l-0.2,0.2v0.4h0.2v0.4l0.7-0.2v-0.2l1.2-1.1l-1,1.5l2.5-2.4
			l-0.2-0.2h-0.3l0.2-0.7l4.9-3.5l0.7,0.2l0.2,2.6l-0.3,0.7h0.2l0.2,0.2l1.4-0.4l1-1.7v-3.5l-0.9-0.4L597.3,92z M590.1,156.1
			l-0.2,0.2l-0.2,0.9l0.7-0.2v-0.9H590.1z M590.1,197.3l0.2,0.2h0.2l0.2,0.2v-0.2h-0.2l-0.2-0.2H590.1z M593.6,204l-1.2,0.4
			l-0.9,1.7l-1,0.2l-0.3,0.4l0.5,0.9h0.5l2.6-3.2V204L593.6,204L593.6,204z M591.5,110.4l0.5,1.1l-0.3,0.4l-1.2-1.7h0.9L591.5,110.4
			z M591,167.4l-0.5,2.6l0.7-0.2v-0.4l-0.3-0.4l1.6-1.9L591,167.4z M591,85.7l-0.3,1.1l1-0.4l0.5-0.9l-0.5-0.4L591,85.7z
			 M591.3,123.4l-0.2,0.9l0.2,0.2l0.7-0.2l0.2-1.1l-0.3-0.2L591.3,123.4z M591.7,138.8l-0.5,0.4l0.5,0.4l0.7-0.2l0.2-0.2l-0.2-0.4
			L591.7,138.8L591.7,138.8z M592.2,171.9l-0.9,0.9l0.2,1.1l2.5,1.3l1.8,0.9l-2.3-4.1H592.2z M591.9,88.7l0.3,1.9l0.7,0.2l0.3-1.3
			l-0.5-1.5L591.9,88.7z M594.1,108.9l-0.9,1.7l-0.7-0.2l-0.2-0.9l0.2,0.2v-0.2l0.5-0.9L594.1,108.9z M592.4,127.5l0.2,5.4l0.7,0.6
			l0.7-1.3l-0.2-0.4l0.2-1.1l0.9-0.2l0.5,0.4h0.5v-0.6l-0.3-0.2l-0.3-1.5l-1.8-1.1L592.4,127.5L592.4,127.5z M592.6,176.9l-0.2,0.2
			l0.2,0.6h0.3l0.3-0.4l-0.3-0.4L592.6,176.9L592.6,176.9z M592.7,216.8l-0.2,0.4l0.9,0.9l0.9-0.9l-0.9-0.6L592.7,216.8z
			 M593.6,171.1v0.9l0.7-0.2l0.2-0.9l-0.2-0.2L593.6,171.1z M593.8,124.3v0.7l0.3,0.7l0.2-0.7v-0.7H593.8z M594.3,199.1l0.3,0.4
			v-0.2l-0.3-0.4V199.1z M595.2,80.3l0.9,1.5v0.9l0.7,0.9l-0.9,4.1l0.5,1.3l3.2,1.5l1-0.4l0.5-1.1l-2.8-1.7v-1.9l4.4-0.7l-0.3-1.1
			l-1.2-0.7l0.2-0.2l-1.4-1.1H599l-0.9-1.7l-2.1-0.7L595.2,80.3z M608.5,93.1l-0.5,4.3l-1.2,0.2l-1.6-2.6h-2.3l-0.7,5.2l1.2,3.2
			l-1.6,0.2l-1.2,1.9l0.7,0.7v2.2h-1.2l-0.7-0.7l-1.8,3.9l-1.6,0.7l-0.3,1.3l1.2-0.7l1.6,1.9l0.9-1.5l-0.5-1.1h0.2l0.2-0.2h0.7v0.2
			h-0.2l0.5,0.9l1.6,0.2l0.5,5l-2.1-1.5l-0.2,2.6l1.6,0.2l0.3-0.4l1.6,0.7l0.7,1.3l1.2,0.4l0.5-0.7l0.2-1.1v0.2l1.8-1.5l-1.2-0.2
			l-0.5-1.1l0.2-1.5l-0.5-1.3l-0.9,4.3h-1.4l1-7.8l1.2-0.7l-1.4-1.3l-0.2-1.1l1.4-0.7l0.3-0.7l-0.7-0.7l0.2-0.9l1.8-0.7l0.3,2.4
			l0.5-0.7l0.3-2.8l-2.1-3.2l0.2-1.3l0.7-0.2l0.9,0.4l1.2-2.2l-0.2-4.6L608.5,93.1z M595.7,205.1l0.3,2.6l0.5,0.2v-0.2l0.2-0.2
			l1.4,0.2l-0.5-1.1l-1-1.3h-0.2l-0.5-0.4L595.7,205.1z M596.2,116.2l2.3,1.5l1-0.9l-1.2-0.4l-0.9-0.4l-0.7-1.3L596.2,116.2z
			 M598.5,164.6h-1.6l-0.7,0.6l1.8,1.3l0.5-1.5l1.4,0.6l1-1.5L598.5,164.6z M596.8,135.5l0.2,1.1h-0.3l-0.2-1.9L596.8,135.5z
			 M598.3,146.6l-0.3,0.6v0.4h-0.5l-0.5-0.2V147h0.2l0.3-0.6L598.3,146.6z M600.4,83.1v1.1l-3.2-0.7l0.7-1.7L600.4,83.1z
			 M598.5,160.7l-1,0.6l1.2,1.1l0.9-0.9l-0.3-0.9L598.5,160.7L598.5,160.7z M597.5,170.4l0.2,3.7l1-1.7l-0.9-1.9L597.5,170.4
			L597.5,170.4z M598.5,149.8l0.3,0.6l-0.7,1.1v-0.2l-0.3-0.2v-0.6l0.2-0.2v-0.6l0.5-0.4L598.5,149.8L598.5,149.8z M598.3,168.1
			l-0.2,0.9h0.5l0.3-0.6v-0.9L598.3,168.1z M598.9,140.5l-0.5,0.2l0.7,1.1l0.5,0.2l0.3-0.2v-3.9L598.9,140.5z M599,121.2v0.4
			l0.5,0.7l0.3-0.7l-0.2-0.4H599z M609.2,88.9h-0.9l0.2-1.3l-0.2-0.4h-0.2l-0.3,0.4l-0.2,0.9l0.2,0.2l-2.3-1.1v-0.2h-0.7l-0.7-1.5
			l-0.7,0.4l-0.2-0.2l-1.4-0.4H601l-0.5,0.7l1.4,1.3h1l1.4,1.3l0.5-0.7l-0.3,3l0.9-0.7l0.3-2.2l-0.2,2.2l1.2,1.3l0.7-0.2v-0.7
			l-0.5-1.1l3-0.7l0.3-0.9l0.3-0.2l-0.2,3.5L611,92l0.5-3.9h0.3l-0.9-3.7L609.2,88.9z M600.8,142v0.4l3,0.2l0.5-0.9v-1.1l-0.9-1.5
			L600.8,142z M601.1,157.2v1.9l0.3,0.4l0.9-0.4L602,157l-0.3-0.2L601.1,157.2z M601.3,147.9v0.4h1.4v-1.1l-0.9-0.2L601.3,147.9z
			 M601.7,205.3l-0.2,0.4l0.5,1.5h0.7l0.3-0.6l-0.3-0.9l-0.5-0.4L601.7,205.3L601.7,205.3z M602.4,153.8l1,1.3l0.5-1.1l-0.3-0.9
			l-0.5-0.2L602.4,153.8z M603.9,128.2l-1.2,2.6l0.9,0.6l1.6-0.6l0.2-2.2l-0.5-1.3L603.9,128.2z M603.2,135.5l-0.2,1.3l0.5,0.9h0.7
			l1.4-3.2l0.7-0.2l-2.8-0.9L603.2,135.5z M603.8,206l-0.5,0.4l0.5,0.9l1.6,0.2v-0.4l-0.2-0.2h-0.5l-0.3-0.9H603.8z M603.6,82.9
			l0.3,0.7l0.9,0.2l0.7,0.2l0.2-0.4l-0.2-0.4l-1.4-0.4L603.6,82.9z M604.1,185.6v1.7l0.7-0.2l0.3-0.4l0.2-0.9l-0.5-0.6L604.1,185.6z
			 M605,124.9l0.2,0.9l1.9,1.1l0.5-0.9l-0.2-1.3l-1.6-0.4L605,124.9z M605.2,141.8l0.2,0.6l0.5,0.2l0.3-0.2V142l-0.7-1.1
			L605.2,141.8z M605.2,217l0.2,0.4l0.3,0.2l0.3-0.2l-0.3-1.3L605.2,217z M606.6,199.3l-0.5,0.9h-0.2l-0.5,3l0.9-0.6l1.8,0.4
			l0.2-1.9l-0.2-0.4l0.3-0.9l-0.9-0.6L606.6,199.3z M607.4,137.9h-0.3l-0.2,0.2l-0.7-0.4l-0.5,0.6l0.5,0.6l0.9-0.2l0.2,0.2h0.9
			l0.7-0.9v-0.6l-0.7-0.2L607.4,137.9z M605.9,161.3l-0.2,0.6l0.5,0.9l0.5-0.9l-0.3-0.9L605.9,161.3z M606.6,156.1L606,157l0.2,0.6
			l0.9,0.2l0.3-1.3l-0.9-1.5L606.6,156.1L606.6,156.1z M606.2,152.9v0.4l0.2,0.2l0.2,0.4l0.3-0.4v-0.9L606.2,152.9z M607.3,149.6
			l0.9,1.1l-1,1.3l1.6-0.4l-0.7-3L607.3,149.6z M607.8,141.6l-0.5,3.7l1.8-0.6l0.5-2.2l-0.2-0.2V142l-0.7-0.9L607.8,141.6z
			 M608.1,214.4l-0.2,0.9l0.2,0.2l-0.5,0.9v3.9h-0.2v0.4l-0.2,0.2l1.2,0.6l-0.2-3l0.5-1.1l-0.2-0.4l0.5-0.4l-0.2-2.4L608.1,214.4z
			 M608,208.4l0.7,0.6l0.3-0.2l0.2-0.4l-1-0.4L608,208.4z M608.3,111.5l0.9,0.2v-0.4l-0.9-0.2V111.5z M608.8,189.7l-0.3,1.7l0.7,0.6
			l-0.2-1.3l0.3-0.6v-0.4H608.8z M609.2,116.9l-0.2,0.4l0.2,0.4l0.5,0.2l0.3-0.2l-0.2-0.9l-0.3-0.2L609.2,116.9z M609.9,106.5
			l-0.7,0.9l1,0.2l0.7-0.7l-0.2-0.7L609.9,106.5z M610.2,96.1v0.4l1.4,0.7l0.7-0.9h-0.5l-0.5,0.2l-0.5-0.7L610.2,96.1z M612.2,80.9
			l-0.5-0.4l-0.5,0.7l0.3,0.7l0.7-0.2h0.2l0.2,0.2h0.7l0.7-0.7v-0.7l-0.7-0.2L612.2,80.9z M612.5,206.4l-0.9,0.2l-0.3,0.6l0.5,0.9
			l0.7,0.2l0.5-0.4l0.2-0.6l-0.2-0.9L612.5,206.4L612.5,206.4z M611.6,154.2l0.2,0.9l0.2,0.2l0.3-0.9L612,154L611.6,154.2z
			 M613.4,101.5l1.2,0.4l-0.7-1.1l-0.7-0.7l0.3-0.4v-0.4l-0.7-0.2L613.4,101.5z M613.7,83.1l-0.3,0.4l0.3,0.7l0.5,0.2l0.5-0.2
			l0.2-0.7l-0.2-0.4l-0.3-0.2L613.7,83.1z M613.4,204.9l0.2,0.6l0.3,0.2l0.3-0.2v-0.4l-0.3-0.6L613.4,204.9z M614.4,210.5v0.6
			l1.8,0.6l0.7-1.1l-1.4,0.4l-0.5-0.6L614.4,210.5L614.4,210.5z M615.5,95.2h0.7l0.9,0.4l0.5,0.9l0.2-1.7l-2.5-0.2L615.5,95.2z
			 M615.8,98.2l0.3,0.4l0.3-0.2v-0.2l-0.3-0.7l-0.5-0.2L615.8,98.2z M615.8,203.4l0.7,0.6l-0.2,2.4l8,0.9l1.4-1.3h-1.6l-4.4,0.4
			l-0.7-1.1v-1.1l0.9-0.4l0.2-1.3l-0.5-0.9l-3.8-0.2V203.4z M616.7,91.3l0.2,0.7l0.2-0.4l0.3-0.7l-0.5-0.2L616.7,91.3z M617.6,198.6
			l0.3,0.9h1.9l-1.8-1.7L617.6,198.6z M618.3,217l1.6,0.4l-1.8-1.9l0.3-1.1l-0.9-0.2L618.3,217z M617.9,77.4l0.5,0.4l-0.2,1.9
			l6.8,1.1l1-1.1h-4.9l-0.5-0.7v-1.1l0.7-0.4l0.2-0.9l-0.3-0.7l-3.2-0.4L617.9,77.4z M618.8,88.9l0.2,0.9l0.2,0.2l0.3-0.2l0.2-0.4
			l-0.3-0.7L618.8,88.9z M619,97.2v1.5l0.3,0.2l0.9-1.7l-0.9-1.7L619,97.2z M619.2,83.5l0.5,0.7l0.7,0.2l0.3,2.6l0.3,0.4l-0.3,2.8
			l-0.2,0.4l0.2,0.7l0.3,0.2l2.6-5.4l-0.2-1.3h-1.2l0.2,0.7l0.5,0.2v0.2l-1.4-0.7V85l-0.5-0.9l0.2-0.9l0.2-0.2v-0.4L619.2,83.5z
			 M619.9,100l-0.2,0.2l0.2,0.7l0.7,0.7v-0.9l-0.3-0.7H619.9z M620.4,208.6l0.2,0.9l1.9,0.4l0.7,0.9l0.2-1.9l-2.3-0.6L620.4,208.6z
			 M620.9,212.1l0.2,0.9l0.9,0.4l-0.3-1.3L620.9,212.1L620.9,212.1z M622,204.5l0.3,0.9l0.5-1.3l-0.5-0.2L622,204.5z M622.3,198.4
			l-0.2,0.9l0.5,0.9l1.2-0.2l0.9-1.1l-1.2-0.6L622.3,198.4z M622.8,74.6l-0.3,0.7v1.3L623,77l0.7-0.4l1.6-0.2l-1-2.2l0.5-0.4
			l-2.1-0.4L622.8,74.6z M623.9,84.2l1.6,0.9l1.2-0.4l-0.2-1.3l-1.2-0.2L623.9,84.2z M624.6,201.6l-0.2,0.6l0.5,0.6l0.5-0.2v-1.1
			l-0.3-0.2L624.6,201.6z M625.6,196.2l-0.9,0.4l0.7,0.9l0.7,0.2l0.5,3.2l0.5,0.4l-0.3,4.6l0.5,0.2l2.1-5.9l0.9-0.6l-0.2-1.5h-1.8
			l0.9,1.1h0.2v0.2l-1.4-0.4v-0.4h-0.3v-0.2l-0.5-1.1v-0.9l0.3-0.4l-0.2-0.4L625.6,196.2z M625.1,213.4l0.3,0.2l1-2.2l-1.2-1.9
			L625.1,213.4z M625.8,96.9L626,98h0.3l0.2-0.2l0.2-0.9l-0.7-1.3L625.8,96.9z M648.9,196l-1.9,4.1l-1.8-0.2l-2.3-3l-1,0.6l-0.2,1.9
			l0.3,0.6l-0.5,2.8l-2.6-4.1l-0.7,0.4l-1.6-0.4l-0.5,1.9l-0.5,0.4l-1-0.4l-1,0.4l0.5,1.7h1.9l-0.2,1.7l-1,0.9l-1.4-0.9l0.3,1.5
			l1,0.4l-0.5,1.5l-1.2,0.2l-0.9-1.7v-1.1l-1.8-1.5l-1,2.2l0.2,0.9l-1.8,1.3l-0.7-1.1l-1,0.2l0.7,1.1l1,0.4l1.8-1.1l0.5,0.2l0.3-1.9
			h0.9l0.3,1.1l0.9,0.4l-1.4,0.4l-1.4,1.9v0.6l0.5,0.4l0.9-1.1h0.5l0.2,1.3h0.9l0.3-0.9l0.7,0.6l-1,1.7l-0.3-0.4l-1.8,0.6l-1.8-1.1
			l-1.4,0.2l1.6,1.1l-0.2,2.4l1.6,1.3h0.9l0.5,0.4l-0.3,0.2v0.4l0.3,0.6l3.2-1.7l-0.5-2.2l1-1.7l0.2-2.2h0.3v-1.1h0.5l0.3-0.4
			l3.8-0.2l0.5-0.9l-0.7-0.6h-0.9l-0.2-0.9l0.5-0.9l0.9,0.4l0.9-0.9V204l2.6-1.3l0.5,0.6h0.7l0.5,0.9l1.2,0.2l0.3,0.9l-1.6,1.5
			l0.7,0.4l-0.2,1.1l-3.7,1.9l3.2,1.1l0.3,2.6l-0.7,1.9l1.2,1.5v0.6l1.2,0.6l0.5-0.9l-1.8-8l1.2-2.2l2.6-1.1l0.5-1.3l-0.7-1.1
			l-1-0.4l1.4-4.1l-1.9-0.6v-3L648.9,196L648.9,196z M626,215.1l0.2,0.9l0.7,0.6v-0.9l-0.3-0.6H626z M628.4,75.9l-0.2,0.9l0.3,0.9
			l0.7,0.2l0.2-0.7l-0.2-0.7l0.2-0.7l-0.2-0.2L628.4,75.9z M628.4,83.5l0.5,0.9l0.2-1.9L628.4,83.5z M629.7,201.6l1.9,0.9l1.4-0.6
			l-0.2-1.5l-1.4-0.2L629.7,201.6z M630.7,97.6V98l0.3,0.4h0.7l-0.2-0.9L630.7,97.6L630.7,97.6z M634.4,93.7l-2.8-1.5l0.5,1.5
			l-0.5,1.9l0.2,0.4h0.5l0.7-1.5l1.8,0.9l1.2-1.9V92L634.4,93.7z M633,77.4l-0.2,0.7l0.3,0.9l1.2,0.7l1.2-0.9l-1.9-1.7L633,77.4z
			 M632.8,199.1l0.9,0.9l0.2-1.1l-0.2-1.1L632.8,199.1z M634.9,197.1l4.2-0.2l1.4,3l0.5-0.9v-0.9l0.2-0.2l-0.2-1.3v0.2l-1-0.9
			l-1,0.2l-2.1-1.3L634.9,197.1z M636.8,79.2l-0.5,1.1l0.5,0.9v0.4l2.5-0.7l0.9,0.7h0.9l0.2-0.2v-0.2l-0.5-0.7l-1.2-0.2l-1.2-1.3
			L636.8,79.2z M636.3,83.7l0.5,1.3l0.7-1.5L636.3,83.7z M637.7,212.7l-0.7,2.4l0.2,0.6h0.9l0.7-1.9l2.1,0.9l1.4-2.4l-0.5-1.1
			l-0.3,0.9l-1,0.6L637,211L637.7,212.7z M642.4,215.1l-0.3,1.1l-1.2,0.6l1,0.9l1.2-0.4l0.5,0.4l0.3-0.4V216l-0.7-1.1L642.4,215.1z
			 M641.4,83.9l-0.3,0.4v0.4l0.5,0.7l1.2-0.7l0.2-0.7l-0.5-0.4L641.4,83.9z M641.4,87.2l-0.2,0.4l0.2,0.2l1.2-0.4l-0.7-0.4
			L641.4,87.2z M641.6,79.4l0.9-0.7l0.7-1.7v-1.1l-0.7-0.2L641.6,79.4z M644.2,207.1l-1.4-0.4l-0.5,2.2l0.2,0.4l0.7-0.2l3.3-3.5
			l-1.8-0.2L644.2,207.1z M643.5,212.7v0.4l0.5,0.6l0.7-0.2v-0.9l-0.9-0.2L643.5,212.7z M645.6,81.8l-0.2,0.9l0.7-0.2l0.3-0.7
			l-0.3-0.4L645.6,81.8z M645.4,196l0.9,1.7l0.7-1.9l-1-1.5L645.4,196z M645.6,85v0.4l0.5,0.4h0.9l-0.3-1.1l-0.9-0.2L645.6,85z
			 M646.5,91.3l-0.5,0.9l0.2,0.9l1-0.4l0.7-1.1l-0.7-0.4L646.5,91.3z M650,209.2l-0.3,1.1l0.5,1.1l0.7,0.2l0.3-0.9l-0.3-0.9l0.2-0.6
			l-0.2-0.4L650,209.2z M650.7,217.3l0.3,1.3l0.3,0.2l0.3-0.2l0.2-1.3L651,216L650.7,217.3z M652.4,200.6l-1,1.5v1.7l0.7,0.4
			l0.9-0.6l0.9-0.4l0.5-0.9l-1-1.7L652.4,200.6L652.4,200.6z M652.4,207.7l2.1-0.4v0.2l0.2,0.2v1.1l-2.5,2.2l-0.9,2.4l1.4,0.4l1-0.4
			l-1-1.7l3-3l1-2.2l-3.3-0.2L652.4,207.7z M651.5,198.8l0.2,0.4h0.7l0.7-0.4l-0.7-0.6L651.5,198.8z M652.4,81.6l-0.2,0.4l0.2,0.4
			h0.3l0.3-0.4v-0.4l-0.3-0.2L652.4,81.6z M653.8,75.9l0.3,0.4h0.3v-0.7l-0.5-0.2L653.8,75.9z M653.8,197.3l0.2,0.6l0.5,0.4l1.6-0.6
			l0.2-0.6l-0.9-0.6L653.8,197.3z M654.3,204.5l0.2,0.9l1.2-0.4l0.9-1.3l-0.9-0.6L654.3,204.5z M654.9,81.8l-0.2,0.4l0.5,0.4h0.3
			l0.2-0.4l-0.5-0.4H654.9z M655.4,210.8l-0.2,0.9l1.9,1.7l1.4-1.1l-2.3-1.9L655.4,210.8z M656.4,215.5l1,0.6l2.8-0.6l-0.3-1.1
			l-0.5-0.2L656.4,215.5z M656.8,200.8l1.8,1.1l0.2-0.2v-0.4l-0.9-0.6L656.8,200.8z M658,203.6l-0.2,0.4l0.2,0.4l0.3,0.2l0.5-0.4
			l-0.2-0.6l-0.3-0.2L658,203.6z M658,208.2l0.9,1.1l0.9-0.2l-0.5-1.1l-0.9-0.2L658,208.2z M662.4,205.8l-0.3,1.1l0.9-0.2l0.5-0.9
			l-0.3-0.4L662.4,205.8z M662.2,209.9l0.2,0.4l0.7,0.2l0.3-0.4l-0.2-0.4l-0.9-0.2L662.2,209.9z M662.6,213.4l-0.3,1.1l0.5,2.2
			l3.2-1.5l0.9,1.1h1l0.3-0.6l-0.9-0.9l-1.4-0.2l-1.4-1.5L662.6,213.4z"/>
		<path d="M834.4,215.3l-0.2,3.5v1.9l-0.5,2.6l-1,1.5l-1.2,0.6l-1.8,0.4h-1.4l-2.5,0.2l-19.4-1.3h-13.1l-15.8,1.3l-10.2-0.9h-13
			l-8,0.6h-2.6l-2.5-0.2l-1.9-0.4l-1.2-0.9l-0.9-1.3l-0.3-2.6V217l0.9-8.2l0.2-3.2l-0.7-11.5v-3.5l0.3-11.5v-3.5l0.3-26.4v-3.5
			l-0.7-26.4v-3.5l-0.2-11.5V85.9l-0.3-6.5v-3.2l0.2-1.9l0.5-2.8l0.7-1.3l1.2-0.7l1.9-0.4h1.4l2.6-0.2l8.6,0.7h2.8l12.4-0.2h1.8
			l1.2,0.9l0.9,1.5v18.9l0.3,12.6v3.5l-0.5,12.6v3.5l0.3,12.6v3.5l0.5,12.6v3.5l-1,28.6l0.2,2.2l0.2,1.1l0.3,1.1l0.9,0.9l2.1,0.4
			l6,0.4l5.2-0.4h2.8l25.2-0.4l2.8-0.2l6-0.9l2.8-0.2h2.6l2.1,0.6l1.2,1.3l0.5,1.5l0.2,2.4l0.2,12.1l0.2,3.5L834.4,215.3z
			 M743.9,172.4l-0.5-0.2l-0.2,0.2l0.2,1.9l0.5-1.1V172.4z M744.5,156.1h0.5l-0.5-0.6l-0.5,0.2L744.5,156.1z M744.6,90.9l0.9,0.9
			l0.3-0.2l0.2-0.4l-0.7-0.9L744.6,90.9z M744.8,167.6l1.9,2.4h0.7l0.7-1.3l-0.2-1.1l-0.5-0.6l-2.6,0.2V167.6z M745.3,174.1l0.5,1.1
			v-1.1h1.4l0.9-0.6l-2.1-1.7L745.3,174.1z M747.6,189.5l0.9-0.2l0.3-0.6l0.3-0.9h2.6l0.9,1.3l1.2-0.4v0.4l1.8,0.4l1.4-0.6l0.3-1.1
			l-0.3-0.9l2.5-1.1l1,0.9l-0.2,1.5h-0.9l-0.5-0.4l-0.3,0.2l2.8,4.8v0.4H760v0.2h-0.9l-0.7,0.6l-3.5-2.6l-0.2,1.5l-0.7,1.1l0.2,1.1
			l0.7,0.6l1-0.2l0.3-1.1l-0.3-0.2l0.2-0.9l3,1.5l0.9-0.6l1,0.6l1.2-0.6l0.3-0.9l0.9,0.9l0.2-0.2v-0.2l-1-1.1l0.3-4.6l1-0.6l0.9-2.2
			h0.5l0.3-0.4l-0.3-0.9l-0.9-0.4v-0.2h-0.2l0.7-2.2l-1,0.2l-1,1.9l-2.8-1.5l0.3,1.7l1.6,1.7l0.2,1.1l-2.8-2.2l-0.7-2.4l-0.7-0.6h-3
			l-1.4,3l1.2,1.1l0.3,1.9l-2.5-1.5l-2.3,1.1l-2.8-1.1l-0.7-1.7l0.5-1.3l0.3-0.2l0.7,0.6h0.7l0.3-0.9l-1.2-0.6l-0.3-0.6l1-1.7h-0.3
			l-0.5-0.4h-0.7l-0.3-0.6l-0.7,0.2l-0.2,0.6l0.3,0.2l-0.9,3.2l0.7,2.4l-0.3,0.9l1.8,1.9l-2.5,3.5l1.2,0.4L747.6,189.5z
			 M747.3,116.2l0.3,0.2h0.2l0.2-0.2l-0.2-0.4l-0.3-0.2L747.3,116.2z M747.4,96.3l1,0.9h0.2l0.2-0.2l1,0.7l1.2-0.9L747.4,96.3z
			 M748.3,152.7l-0.7,1.5l0.9,1.7l0.2-5.4L748,152L748.3,152.7z M748.7,194.7l0.5-0.2l0.2-0.9l2.5-0.9l-2.1-1.9l0.2-0.6l-0.3-0.4
			L749,190l0.2,0.6l-0.3,0.6v0.9l-0.7,0.2v1.7L748.7,194.7z M748.5,165.9l0.2,0.4h1.2v-0.9l-0.9-0.2L748.5,165.9z M750.6,163.3v-0.4
			l-0.2-0.4h-0.9l-0.7,0.9l0.9,0.4L750.6,163.3z M748.8,202.9l0.5,0.4l0.3-0.4v-0.2l-0.7-0.2L748.8,202.9z M752.7,216.8l-1.2-0.6
			l0.5-2.4l-1.6-1.5H749l1.8,2.2l-0.2,0.9l-0.9,1.1l-0.2,1.5l1-0.9l1.8,0.9l0.3-0.2L752.7,216.8L752.7,216.8z M749.5,92l0.2,0.2h0.3
			l0.2-0.4l-0.2-0.2h-0.3l-0.2,0.2V92z M749.9,88.9l0.5,0.4l0.9-0.2l-0.7-0.4L749.9,88.9z M755.7,199.9l0.2-1.5l-0.9-0.6h-4.2
			l-0.5,0.6l0.2,0.6l4.2-0.2L755.7,199.9z M750.8,196l0.5,0.2l0.3-0.2l0.2-0.2l-0.2-0.6l-0.9-0.2l-0.2,0.4L750.8,196z M751.1,100.8
			l-0.2-0.7l-0.2,0.7v0.7L751.1,100.8z M751.1,172.6l0.3,0.2l0.3-0.2v-0.9l-0.3-0.4l-0.3,0.2V172.6z M751.5,91.3l-0.2,0.2v0.2
			l1.6,0.9l-0.7-1.1L751.5,91.3z M751.6,112.8l-0.3-0.7l0.2,1.3L751.6,112.8z M751.5,79.2l0.3,1.1l1.6,1.3l0.5-0.9l-0.5-1.5
			l-1.2-0.4L751.5,79.2z M751.5,169.4l0.2,1.5l0.3-3L751.5,169.4z M752,87l-0.2,1.9l1.4-2.4L752,87z M751.8,182.1l0.2,0.4h0.9
			l0.2-0.4l-0.2-0.6l-0.5-0.2l-0.3,0.2L751.8,182.1z M752.9,207.1l-0.2-0.2h-0.5l-0.3,0.4l0.2,0.4l0.7-0.2L752.9,207.1z M752,139.4
			v0.4l0.2,0.2l0.3-0.2v-0.6l-0.2-0.2L752,139.4z M754.8,137.9l0.2-0.4l0.2-0.6l-2.6-2.8h-0.2l-0.2,0.2l2.1,2.8l-0.2,0.4l0.3,0.4
			H754.8z M756.2,206.2h-1.9l0.2-1.3l1.4-1.3l-3.5,3l1-0.2l1.8,0.9L756.2,206.2z M753.7,157.4l0.2-1.1l-0.5-0.4l-0.9,2.4
			L753.7,157.4z M752.7,160.5l-0.2,0.2l0.2,0.6l0.3,0.2l0.3-0.4L752.7,160.5z M753.7,119.1l-1,0.9v0.7l1.8,1.9h0.2l0.2-2.8l-0.5-0.4
			L753.7,119.1z M756.9,166.5l-0.9-2.4l-1.2-1.5l-1-0.2l-0.9,0.9l0.2,1.1L756.9,166.5z M754.1,202.1h0.2l0.3-0.6l-1.8,0.4v2.4
			l0.3,0.2l0.3-1.3l0.2,0.2l1-0.6l-0.2-0.4L754.1,202.1z M753.6,154.4l0.2-0.2l-0.3-0.9l-0.3,0.2v0.6L753.6,154.4z M754.4,147.9
			l0.2-0.6l-0.5-1.1l-0.9,1.3l0.5,0.9L754.4,147.9z M755,215.3l0.2-0.9L755,214l-1,0.2l-0.5,0.6l0.2,0.9l0.7,0.4l0.2,0.6l0.7-0.4
			L755,215.3z M754.4,173l-0.7,0.4l-0.2,0.9l0.7-0.2l0.5-0.6L754.4,173z M755.3,169.6l-0.5-2.8l-0.5,1.1l0.7,0.9l-1,1.3L755.3,169.6
			z M754.8,218.4l-0.2-0.9l-0.5,0.2l-0.2,0.6v0.4l0.3,0.2L754.8,218.4z M754.3,92.8h0.2l0.3-0.2V92l-0.5,0.2L754.3,92.8L754.3,92.8z
			 M754.8,89.6l0.2,0.7l0.2-0.4h0.2v-0.4l-0.2-0.2L754.8,89.6z M755.5,161.3l-0.3,0.2l0.5,0.4h0.2l0.2-0.2l-0.3-0.4H755.5z
			 M755.5,91.5l0.5,0.9h0.7l1.6-3.9l-2.6,1.9L755.5,91.5z M755.5,95.9l0.3,0.7l0.5-0.9l-0.3-0.9l-0.5,0.2V95.9z M755.7,175.4
			l0.3,0.4h0.5l0.5,0.2l0.9,1.9l1.2,0.6l0.3-0.4l-2.8-3.9l-0.7,0.2l-0.3,0.4V175.4z M757.8,201.9l-1-0.6l-1,0.2l0.7,1.7L757.8,201.9
			z M756.2,154l-0.3,0.6l0.2,1.3l0.2-1.1V154z M756,85.2l0.5,0.4h0.3L757,85l-0.3-0.4L756,85.2z M756.2,82.2l0.2,0.9h0.3l1.9,0.7
			l-0.2-1.7l-1.6-0.4L756.2,82.2z M756.2,156.8l1.6,0.9l0.9,1.1l-0.5-1.7L756.2,156.8z M757.6,215.7l-0.7,0.2l-0.5,1.5l0.5,0.4
			l0.7-0.4V215.7z M757.1,141.8l-0.2,0.6l1,0.2l0.5-0.6v-0.6l-0.7-0.4l-0.3-1.1l-0.5,0.9L757.1,141.8z M756.9,205.8l0.2,1.1l0.9-1.7
			l-0.5-0.2L756.9,205.8z M759.3,212.1l-0.5-1.9l-0.7-0.4l-0.5,0.4l-0.7,0.4v1.1l1,1.1h1.2L759.3,212.1z M757.9,95.7h-0.5l-0.2,0.9
			l0.3,0.4h0.3L757.9,95.7L757.9,95.7z M757.8,190.8l0.5,0.2h0.3l0.2-0.6l-0.2-0.6l-1-0.2l-0.2,0.4L757.8,190.8z M757.8,76.6
			l0.3,0.7v0.2l-0.2,0.9l0.3,0.7l0.3-0.4l0.2-1.9l-0.7-0.9L757.8,76.6z M757.9,114.9l-0.2,0.4l0.2,0.4l0.3,0.2l0.9-0.9l-0.3-0.4
			L757.9,114.9z M759,168.7l-0.2-0.6h-0.7l-0.3,0.4v0.4l1.6,2.2v-0.2h0.2L759,168.7z M762.1,175.6l1.4-0.4l1.8-0.4l0.3-0.9l1.6-0.4
			l-1-3.9l-1.8,4.8l-4.5-1.3l-0.9-1.7l-1.2,1.9l1.6,1.5l0.5-0.9l0.9,0.2l-0.2,2.4l1.4,1.3l0.7-0.4l0.2-0.6l-0.5-0.4L762.1,175.6z
			 M760.9,206.6h0.5l0.3-0.4h0.2l0.2-0.2h2.5l0.3-0.6l-0.2-1.1l-2.5-0.4l-0.5-1.5l0.2-0.9l0.5-0.6l0.7-0.2l0.3-0.9l-0.5-0.6h-0.9
			v-0.2l-0.9-0.4l-0.3,0.4l-0.9-1.1l-1.8,0.4l-0.2,0.9l0.2,0.6l0.5,0.2l0.2-0.2l2.3,5.9h-0.2l-0.3,0.6v0.2L760.9,206.6z M758.5,99.3
			l-0.2,1.1l0.2,0.4l1.2-0.9v0.2l0.9-0.9l0.2-0.9l-0.5-0.4v0.2l-0.7-0.9l-1.2,0.7L758.5,99.3z M760.6,91.5l-0.7-1.1l-1.4,0.2
			L760.6,91.5z M760.2,209.2l-1.2-2.2l-0.3,1.1l0.2,0.9l0.7,0.6L760.2,209.2z M761.1,93.9l-2.1-0.4l1,0.7L761.1,93.9z M759.5,152
			l0.3-0.6v-0.9l-0.5,0.6l-0.2,0.9H759.5z M759.3,86.6l0.2,0.9l0.2,0.2h0.3l1.4-1.5h-0.2v-0.2L759.3,86.6z M759.5,163.7l0.2,0.4
			l0.5,0.2h0.3v-0.4l-0.7-1.1L759.5,163.7z M760,180.6v0.4l0.5-0.9V180l-0.2-0.2L760,180l-0.2,0.4L760,180.6z M762.3,200.4l-1.2,0.2
			l-0.2,0.4l-0.3,0.2l-0.2-1.7l0.2-0.2l1.4,0.2L762.3,200.4z M760.6,79.2l0.9,0.7h0.7l0.7,0.4l0.9,1.7l-1,3.7l-1,0.9l0.3,0.9
			l0.9,0.4l1-1.5l-0.5-0.7l0.2-0.9l1.6,0.2l0.9-1.5l-0.2-0.7h-0.5l-0.7,0.7l-0.5-3.2l-0.7-0.4l-0.2-1.5L760.6,79.2z M761.4,110.6
			l-0.3,1.7l0.9-0.7h1.4l0.2-0.9l-0.5-0.7L761.4,110.6z M761.8,128.6l0.5-0.4l-0.7-0.6l-0.3,0.2v0.9L761.8,128.6L761.8,128.6z
			 M766,216.2l-0.7-1.5h-0.7l-0.5-0.4l0.5-1.9l-0.3-0.9l1-1.5V209l2.6-0.2l0.3,0.4l0.7-1.9l-0.9-1.3h-2.8l-1.2,2.4l-0.7,0.2
			l-0.3-0.2l-0.3,0.2v0.4l0.3,0.6v0.6l0.3,0.6v1.7l-1,0.2l-1,2.2l0.9,2.4H762l0.5,0.4h0.9l0.5,0.4l1-2.2l0.7,1.5L766,216.2z
			 M762.1,94.6l0.2-0.4l-0.2-0.2h-0.5l-0.2,0.2v0.4H762.1z M761.4,99.8l0.5,0.4h0.5l0.5,0.4l0.7-0.7H763l-0.3-2.4L761.4,99.8z
			 M761.4,167l1.8-0.6l0.5-1.9l-0.2-0.2v-0.2l-0.5-0.9l-0.9,0.4L761.4,167z M762.5,101.9H762l-0.2,0.7l1.2-0.2L762.5,101.9z
			 M762.8,92h0.5v-0.7l-0.5-0.4l-0.2,0.2L762.8,92z M763.5,201l-0.3,0.4v0.9l0.5,0.4h0.7l0.5-0.4v-0.9l-0.5-0.6L763.5,201z
			 M764.4,198v-0.4l-0.3-0.2l-0.7,0.2v0.4l0.7,0.2L764.4,198z M766.2,86.1l-0.7,0.7l-0.3,1.1l-1.6,1.1l0.3,1.1h0.3l0.3-0.4l-0.2-0.4
			l0.3-0.7h0.3l1.4-1.9L766.2,86.1z M764.1,119.3l0.2-0.2v-0.4l0.3-0.4l-0.2-0.9h-0.5l-0.3,2.8l0.3,0.2l0.5-0.4L764.1,119.3z
			 M764.4,159.6l1.6-0.9l0.2-1.9l-0.5-1.1l-2.1,3.2L764.4,159.6z M764.1,103l0.3-1.1h-0.3l-0.3,1.5l0.7,0.9L764.1,103z M766.3,200.8
			l-0.9,0.6l0.9,0.4l1,0.2l0.2-0.4l-0.2-0.4L766.3,200.8z M766.9,165.4l-0.5,0.4l0.3,0.6h1.9l0.7-0.6v-0.6l-0.7-0.2l-0.5,0.6
			L766.9,165.4z M766.3,191.5l0.2,0.2h0.2v-1.9L766.3,191.5z M767.6,198.4l-0.2-0.9h-0.5l-0.2,0.4l0.2,0.4L767.6,198.4L767.6,198.4z
			 M769.1,195.4l0.2-0.4l-0.7-0.9l-1.4-0.2l-0.2,0.6L769.1,195.4z M788,216.8l0.2-2.8l0.5-0.9l-0.5-0.4l-0.3,0.2v0.6l-0.5,0.9
			l0.2,0.9l-2.3,1.1l0.3-2.8l1.6-1.9l-1.6-0.6l-1.6,1.3v1.3l-2.6,3.7l-0.7-0.4l-0.3-1.1l0.3-1.5l-1.9-4.8l-1.6,1.1l0.5,0.6v1.9
			l-0.7,0.2l-0.5-0.6l-0.9-0.2l-0.2-2.8l-3.5-2.2l-0.5-1.1l-0.7-0.4l-0.9,0.4l-0.2,3l-2.3,1.3l-0.2,0.6l1,0.2l0.2,0.2l-0.2,0.9
			l0.3,0.6l4.7-2.6l0.5,1.1l-4,3.9l5.1,6.3l2.3,0.2l0.2-0.2l-0.2-0.2h-0.3l-0.7-4.1l0.7-0.2l0.5,0.2v0.9l1.8,2.2l1.4-0.4l0.5-0.6
			h0.5v-0.2l0.5-0.2l0.7,0.2l0.3-0.4v-0.4h-0.3l-1-1.1l0.5,0.2l2.5-1.3l2.3,2.8l0.3-1.7L788,216.8z M767.6,199.7l0.5,0.4l0.3-0.4
			l-0.5-0.4h-0.2L767.6,199.7z M769.5,196l0.2,0.6h-0.5l0.2,0.9l1.8,0.6v1.5l-1.6,1.7l-0.5,2.6l1.6,1.1l3.3-1.5l0.3,1.9l1.2,1.3
			l0.5-0.9l1.6,0.2l0.2,1.3l-0.7,0.6l3,2.2l0.5,1.9l0.9,0.4l-0.5-1.5l1.4-1.7l-0.9-1.1l-0.9,0.6v-0.2l-0.2-0.2v-0.2l-0.2-0.2
			l0.2-0.2l0.9-0.4l0.2-1.9l3.7-0.4l-1,2.4l1.8,0.2l0.2-1.9l-0.2-0.2l1.8-3.9l-2.3-2.8l-0.2,1.3l-0.7,0.6l-1-0.2l-1.2,0.6l1.4,0.4
			l1,1.9l-4.9-1.1l-0.5-1.5l-0.9,1.5l-0.9,0.2v-0.2l-0.9-1.7l-0.5,0.6l-0.7-0.2l-0.3-0.6v-1.3l1.8-0.4l-0.5-0.6l-2.1-0.2l-1.8,2.2
			l-0.7-0.2l0.2-1.7l-0.7-1.5l-0.7,0.2l-0.3-0.2h0.2L770,196l-0.3-0.2L769.5,196z M773,208.4v-0.2l0.2,0.2v0.2L773,208.4z
			 M776.3,196.2l0.7,0.9l0.2-1.1l-0.5-0.9h-0.2l-0.2,0.2V196.2z M778.2,216.4V216l-0.7-0.4l0.2-1.1l1.2,0.9v0.6L778.2,216.4z
			 M779.8,217h0.2l-0.7,0.9l-0.7,0.6l0.2-0.9l-0.2-0.2l0.3-0.2l0.2-0.4h0.5L779.8,217z M779.6,198.2h0.3l0.2-0.2v-0.6h-0.3
			L779.6,198.2z M783.8,208.2l-0.3,1.5l-0.3,1.1l-1,0.6l1.2,0.6l1-2.6L783.8,208.2z M784,197.3l0.3,0.2l0.3-0.2l0.2-0.6l-0.2-0.2
			H784L784,197.3L784,197.3z M819.2,218.1l-0.5-1.1l-0.5,0.2l-0.2,0.6h-0.9l-1.9-1.5V216l-0.2-0.2l0.5-1.5h0.7l0.7-0.6l-1.6-0.4
			l-0.9-2.4l-2.8-0.2l-0.3-0.9l-3.2-1.1l-4.9,2.4l0.2,1.1h-0.2v0.2l-3.7,0.6l0.3-1.3l-1-1.7l-0.7-0.2L798,209l0.2-0.6l0.5-0.4v-0.9
			l-0.2-0.2l-0.7,0.4l-0.5,2.4h-1.4l-0.2-1.5l0.7-1.7l-0.7-0.4l-1.8,1.9h-0.3l-0.3-1.5l-1-0.4l-0.9-1.7h-2.3l-0.2,0.6l-1,0.9
			l0.3,0.9l0.3,0.2l1.2-1.1l0.7,0.2l0.2,0.2v0.2l-0.7,0.9l-0.2,2.4l-1,0.9h-2.1l2.5,1.3l0.3-0.6l1.2,0.2l1,1.7l0.9-0.9v-2.4l1.4-1.5
			l2.3,2.8l-0.5,1.3l1.4,2.8l0.7,0.4l0.9-1.9l1.6,2.2l1.2-0.2l0.7,0.4l0.9-0.2v-0.9l-0.5-0.9l0.5-0.6l0.7-0.2l2.5,1.1l1-1.1h0.5
			l0.2,1.5l0.7,0.9l0.7-0.2l2.5-3.9h2.1l0.3,0.6v1.7l-1.6,2.8l3.2,1.9l0.3,1.7l0.5-0.9l-0.5-0.9l2.6,0.2L819.2,218.1z M787.2,208.2
			l-0.2,0.6l0.5,0.2l0.3-0.6l-0.2-0.2H787.2z M789.4,217.5l-0.7-0.6h-0.3l-0.2,0.4l0.9,0.6h0.2L789.4,217.5z M789.3,215.1h0.5
			l0.3-0.4l-0.2-0.2h-0.9L789.3,215.1z M789.4,201.4l0.3,0.9l0.7-0.2l0.7-0.9l0.2-1.3l-0.5-0.6l-1,0.2L789.4,201.4z M794.2,220.1
			l-2.6-0.2l-0.7-0.4l-1,0.4l1.2,0.9l0.5-0.4l1.2,0.9L794.2,220.1z M796.1,215.7l-0.9-0.6l-0.5,0.2l-0.7-0.4l0.2-1.9l-0.3-0.2
			l-1.4,0.9l-0.9,1.7v1.3h4.2L796.1,215.7z M791.7,202.5l1,1.5l1.6,1.1l0.3-1.1l-0.5-1.7l-1.6-0.4L791.7,202.5z M795.9,204.5h0.2
			v-0.2h3.3l-0.2-0.9l-2.3-1.7l-0.2-0.9L795.9,204.5z M797,212.3l1.4-0.6v0.4L797,212.3z M798.9,220.5l-0.3-0.4l-0.3,0.2l-0.2,0.9
			l0.7-0.2L798.9,220.5z M799.2,199.1l0.3,0.6v0.4l-0.2,1.1l0.3,0.4l0.7-0.4l-0.2-2.2l-0.5-0.9h-0.5L799.2,199.1L799.2,199.1z
			 M802.2,208.4h-2.8l1.9,1.3l0.2,0.4h0.3l0.7-1.3L802.2,208.4z M800.8,220.3l-0.2-1.3l-0.5,0.6l-0.3,0.9l0.2,0.2L800.8,220.3z
			 M800.3,218.4l0.2-0.6v-0.9l-0.5,0.2v0.6L800.3,218.4z M801.2,204l-0.7,0.2l0.9,1.9l1.2,1.3h0.3l0.2-0.6l-0.3-0.6l0.3-1.9
			l-1.4-0.9L801.2,204z M801.9,202.1l0.5,0.4l0.5-0.2l0.2-0.6l-0.2-0.4h-0.3L801.9,202.1z M802,198.4l0.3,1.1h1.8l0.9,0.6l-0.3-1.9
			l-1.8-0.6L802,198.4z M808.2,219.6l-0.7-1.1l-2.1-2.2l-1.2,1.5l2.1,0.2l1.8,2.6L808.2,219.6z M806.2,210.8h0.5l-0.2,0.6l-0.2,0.4
			h-0.2v0.2l-0.3-0.6h-0.2l0.2-1.1L806.2,210.8z M806.2,206.4l0.5,0.6l0.3-0.2v-1.5h-0.7L806.2,206.4z M807.5,199.3l0.9,0.9l0.7-0.9
			l1,1.1l-0.3-1.5L807.5,199.3z M808.7,209.9l0.9,0.6l-0.3,0.2v0.2h-0.5l-0.2-0.2h-0.3l-0.3-0.6L808.7,209.9z M810.4,201l0.2,0.4
			h0.5l0.3-0.4l-0.7-0.4L810.4,201z M811.8,204.2h-0.5l-0.5,0.2l-0.2,0.6l0.2,0.4l0.5,0.2l0.9-1.1L811.8,204.2z M811.7,194.7
			l0.2,0.6h0.3l0.3-0.4l-0.7-0.4L811.7,194.7z M813.4,200.1l-1.2,0.9h0.9l0.5,0.6h0.7v-0.9L813.4,200.1z M813.6,219.9l-0.2-0.4h-0.7
			v0.4l0.5,0.4h0.2L813.6,219.9z M815.2,206l-1,0.2h-0.5l-0.2,0.4l0.3,0.6l1.8-0.2L815.2,206z M816.2,210.3l0.5,1.3l0.7-1.3
			l-0.5-1.1l-0.5,0.2L816.2,210.3z M816.7,201.4l0.2,0.6l0.3,0.2l0.5-0.2l0.2-0.4l-0.2-0.4h-0.9L816.7,201.4z M820.6,211.2l-1-0.6
			l0.5-1.5l-1.2-1.3l0.7,5.2h0.3v-0.4L820.6,211.2z M823,219.9l-0.2-1.1l-0.7,0.4l-1.4-1.7l0.3,1.7L823,219.9z M821.3,209.9l0.5,0.9
			l0.5,0.2v-0.6l-0.3-0.4L821.3,209.9L821.3,209.9z M823.4,211.4l0.2,0.4l2.6-0.2l-1.2-1.3L823.4,211.4z M823.9,216.2h0.7l-0.2-0.6
			l-0.5-0.4h-0.2l-0.2,0.4L823.9,216.2z M827.6,213.8l-3,2.6l-0.2,1.3l0.7,1.1l0.7-0.2L827.6,213.8z M829,217.3l-0.2-0.4l-0.5,0.2
			l-0.2,0.4l0.2,0.2L829,217.3z"/>
	</g>
	<path class="st3" d="M1730.1,53.5v405H829.9v-405H1730.1 M1740.1,43.5h-10H829.9h-10v10v405v10h10h900.2h10v-10v-405V43.5
		L1740.1,43.5z"/>
</g>
</svg>
